<svg width="776" height="266" viewBox="0 0 776 266" fill="none" xmlns="http://www.w3.org/2000/svg">
<g clip-path="url(#clip0)">
<rect width="776" height="266" fill="white"/>
<path d="M41.0009 110.033C41.0009 112.184 46.6078 113.933 53.5004 113.933C60.3868 113.933 65.9892 112.186 65.9991 110.039V110.029C65.9982 109.883 65.9991 106.924 65.9991 106.924C63.4304 108.752 58.4538 109.6 53.5004 109.6C48.5461 109.6 43.5678 108.752 41 106.922C41 106.922 41.0009 109.887 41.0009 110.033Z" fill="black"/>
<path d="M65.9991 112.99C63.4304 114.818 58.4538 115.667 53.5004 115.667C48.5461 115.667 43.5678 114.818 41 112.989V116.533C41.6919 118.483 47.0667 120 53.5004 120C59.9341 120 65.308 118.483 66 116.533L65.9991 112.99Z" fill="black"/>
<path d="M41.0009 103.967C41.0009 106.117 46.6078 107.867 53.5004 107.867C60.3868 107.867 65.9892 106.119 65.9991 103.972V103.962C65.9982 103.817 65.9991 100.857 65.9991 100.857C63.4304 102.685 58.4538 103.533 53.5004 103.533C48.5461 103.533 43.5678 102.685 41 100.855C41 100.855 41.0009 103.82 41.0009 103.967Z" fill="black"/>
<path d="M53.5006 101.8C60.4039 101.8 66.0002 100.054 66.0002 97.9C66.0002 95.7461 60.4039 94 53.5006 94C46.5973 94 41.0011 95.7461 41.0011 97.9C41.0011 100.054 46.5973 101.8 53.5006 101.8Z" fill="black"/>
<path d="M604.558 160L605.616 156.903H611.185L612.243 160H615.247L609.885 145.455H606.909L601.547 160H604.558ZM608.315 148.991H608.486L610.403 154.602H606.398L608.315 148.991ZM622.335 154.915C625.886 154.915 627.428 153.018 627.428 150.192C627.428 147.408 625.95 145.455 622.328 145.455H616.945V160H619.75V154.915H622.335ZM619.75 147.812H622.328C624.047 147.812 624.651 148.849 624.651 150.192C624.651 151.534 624.047 152.585 622.335 152.585H619.75V147.812ZM632.484 145.455H629.679V160H632.484V145.455ZM651.398 154.915C654.949 154.915 656.49 153.018 656.49 150.192C656.49 147.408 655.013 145.455 651.391 145.455H646.007V160H648.812V154.915H651.398ZM648.812 147.812H651.391C653.109 147.812 653.713 148.849 653.713 150.192C653.713 151.534 653.109 152.585 651.398 152.585H648.812V147.812ZM661.426 145.455H658.67V160H661.426V145.455ZM669.88 160H672.536V152.678C672.536 149.908 670.419 148.949 668.253 148.949C665.931 148.949 664.134 150.036 663.63 152.045L666.222 152.422C666.421 151.683 667.167 151.101 668.182 151.101C669.141 151.101 669.759 151.648 669.759 152.621V152.784C669.759 153.359 668.765 153.395 667.799 153.501C665.036 153.757 663.409 154.815 663.409 156.925C663.409 159.034 665.022 160.22 666.961 160.22C668.495 160.22 669.375 159.467 669.752 158.771H669.88V160ZM669.759 156.364C669.759 157.315 668.836 158.132 667.621 158.132C666.712 158.132 666.094 157.67 666.094 156.889C666.094 155.945 666.755 155.504 668.061 155.355C668.559 155.291 669.553 155.149 669.759 154.922V156.364ZM679.952 149.091H678.049V146.761H675.293V149.091H673.937V151.136H675.293V157.081C675.293 158.999 676.728 160.142 678.383 160.142C679.391 160.142 680.08 159.95 680.286 159.865L679.853 157.741C679.668 157.791 679.406 157.827 679.15 157.827C678.546 157.827 678.049 157.678 678.049 156.662V151.136H679.952V149.091ZM682.729 160H685.485V151.136H687.637V149.091H685.485V148.778C685.485 147.926 685.847 147.514 686.7 147.514C687.069 147.514 687.388 147.585 687.637 147.663L688.163 145.561C687.808 145.447 687.083 145.256 686.146 145.256C684.214 145.256 682.729 146.364 682.729 148.651V149.091H681.259V151.136H682.729V160ZM693.761 160.206C696.893 160.206 698.839 157.884 698.839 154.567C698.839 151.229 696.893 148.949 693.761 148.949C690.636 148.949 688.683 151.229 688.683 154.567C688.683 157.884 690.636 160.206 693.761 160.206ZM693.761 157.947C692.042 157.947 691.325 156.499 691.325 154.567C691.325 152.628 692.042 151.186 693.761 151.186C695.487 151.186 696.197 152.628 696.197 154.567C696.197 156.499 695.487 157.947 693.761 157.947ZM707.594 149.297C707.254 149.098 706.657 148.942 706.089 148.942C705.023 148.942 703.908 149.531 703.596 150.639H703.44V149.091H700.741V160H703.496V153.814C703.511 152.607 704.413 151.463 705.719 151.463C706.167 151.463 706.586 151.605 706.735 151.69L707.594 149.297ZM717.919 153.21C717.919 151.911 718.559 151.222 719.631 151.222C720.441 151.222 721.236 151.669 721.236 153.061V160H723.992V153.082C723.992 150.085 722.515 148.949 720.682 148.949C719.226 148.949 718.09 149.709 717.586 150.597H717.472C717.01 149.595 716.08 148.949 714.752 148.949C713.402 148.949 712.436 149.652 711.911 150.476H711.819V149.091H709.12V160H711.875V153.246C711.875 151.875 712.678 151.222 713.587 151.222C714.539 151.222 715.228 151.761 715.228 153.082V160H717.919V153.21ZM603.642 168.091H602.321V179H603.642V168.091ZM611.767 172.651C611.34 171.457 610.424 170.712 608.911 170.712C607.186 170.712 605.907 171.692 605.907 173.077C605.907 174.078 606.568 174.973 608.059 175.357L609.423 175.697C610.233 175.889 610.595 176.251 610.595 176.784C610.595 177.466 609.913 178.084 608.741 178.084C607.527 178.084 606.951 177.423 606.653 176.678L605.502 177.104C605.907 178.126 606.802 179.17 608.762 179.17C610.786 179.17 611.873 177.999 611.873 176.741C611.873 175.804 611.255 174.952 609.764 174.589L608.549 174.291C607.612 174.057 607.164 173.567 607.164 173.013C607.164 172.31 607.91 171.777 608.911 171.777C610.169 171.777 610.488 172.608 610.637 172.97L611.767 172.651ZM622.634 170.989C622.379 170.839 621.974 170.69 621.548 170.69C620.589 170.69 619.694 171.436 619.46 172.224H619.374V170.818H618.117V179H619.374V174.376C619.396 173.268 620.163 171.99 621.505 171.99C621.867 171.99 622.08 172.097 622.208 172.161L622.634 170.989ZM627.012 179.17C628.674 179.17 629.888 178.339 630.272 177.104L629.057 176.763C628.737 177.615 628.013 178.041 627.012 178.041C625.531 178.041 624.599 177.104 624.471 175.335H630.399V174.803C630.399 171.756 628.588 170.712 626.884 170.712C624.668 170.712 623.198 172.459 623.198 174.973C623.198 177.487 624.647 179.17 627.012 179.17ZM626.884 171.841C628.247 171.841 629.121 172.864 629.121 174.249H624.497C624.7 172.714 625.627 171.841 626.884 171.841ZM637.242 179H638.499V173.609C638.499 171.01 636.517 170.712 635.473 170.712C634.237 170.712 632.831 171.138 632.192 172.629L633.385 173.055C633.662 172.459 634.323 171.82 635.537 171.82C636.517 171.82 637.242 172.246 637.242 173.609V173.631C637.242 174.163 636.261 174.121 635.132 174.27C633.598 174.462 631.957 174.824 631.957 176.678C631.957 178.276 633.193 179.192 634.749 179.192C636.176 179.192 636.922 178.425 637.178 177.892H637.242V179ZM637.242 176.038C637.242 177.061 636.432 178.062 634.94 178.062C633.939 178.062 633.215 177.615 633.215 176.741C633.215 175.783 634.088 175.484 635.068 175.357C635.601 175.293 637.028 175.143 637.242 174.888V176.038ZM647.589 179V168.091H646.332V172.118H646.246C645.969 171.692 645.458 170.712 643.86 170.712C641.793 170.712 640.366 172.352 640.366 174.93C640.366 177.53 641.793 179.17 643.839 179.17C645.415 179.17 645.969 178.19 646.246 177.743H646.374V179H647.589ZM641.623 174.909C641.623 173.183 642.411 171.841 644.009 171.841C645.543 171.841 646.353 173.077 646.353 174.909C646.353 176.763 645.522 178.041 644.009 178.041C642.432 178.041 641.623 176.656 641.623 174.909ZM651.999 179.81C651.53 181.024 650.955 181.131 650.06 180.918L649.741 182.026C649.869 182.089 650.231 182.175 650.657 182.175C651.786 182.175 652.596 181.578 653.065 180.321L656.58 170.818H655.217L652.958 177.338H652.867L650.614 170.818H649.251L652.287 179.053L651.999 179.81ZM665.889 170.818H664.141V169.071H662.884V170.818H661.649V171.99H662.884V176.997C662.884 178.425 664.035 179.107 665.1 179.107C665.569 179.107 665.867 179.021 666.038 178.957L665.782 177.828C665.676 177.849 665.505 177.892 665.228 177.892C664.674 177.892 664.141 177.722 664.141 176.656V171.99H665.889V170.818ZM671.012 179.17C673.227 179.17 674.719 177.487 674.719 174.952C674.719 172.395 673.227 170.712 671.012 170.712C668.796 170.712 667.304 172.395 667.304 174.952C667.304 177.487 668.796 179.17 671.012 179.17ZM671.012 178.041C669.328 178.041 668.561 176.592 668.561 174.952C668.561 173.311 669.328 171.841 671.012 171.841C672.695 171.841 673.462 173.311 673.462 174.952C673.462 176.592 672.695 178.041 671.012 178.041ZM686.013 175.761C686.013 177.295 684.841 177.892 683.903 177.892C682.859 177.892 682.114 177.21 682.114 176.017V170.818H680.857V176.017C680.857 178.169 682.305 179.107 683.499 179.107C684.734 179.107 685.523 178.467 685.928 177.849H686.013V179H687.27V170.818H686.013V175.761ZM695.219 172.651C694.793 171.457 693.876 170.712 692.364 170.712C690.638 170.712 689.359 171.692 689.359 173.077C689.359 174.078 690.02 174.973 691.511 175.357L692.875 175.697C693.685 175.889 694.047 176.251 694.047 176.784C694.047 177.466 693.365 178.084 692.193 178.084C690.979 178.084 690.403 177.423 690.105 176.678L688.955 177.104C689.359 178.126 690.254 179.17 692.214 179.17C694.239 179.17 695.325 177.999 695.325 176.741C695.325 175.804 694.707 174.952 693.216 174.589L692.001 174.291C691.064 174.057 690.616 173.567 690.616 173.013C690.616 172.31 691.362 171.777 692.364 171.777C693.621 171.777 693.94 172.608 694.089 172.97L695.219 172.651ZM700.781 179.17C702.443 179.17 703.658 178.339 704.041 177.104L702.827 176.763C702.507 177.615 701.783 178.041 700.781 178.041C699.3 178.041 698.368 177.104 698.24 175.335H704.169V174.803C704.169 171.756 702.358 170.712 700.653 170.712C698.437 170.712 696.967 172.459 696.967 174.973C696.967 177.487 698.416 179.17 700.781 179.17ZM700.653 171.841C702.017 171.841 702.891 172.864 702.891 174.249H698.267C698.469 172.714 699.396 171.841 700.653 171.841ZM710.329 168.091V179H711.544V177.743H711.693C711.97 178.19 712.503 179.17 714.079 179.17C716.125 179.17 717.552 177.53 717.552 174.93C717.552 172.352 716.125 170.712 714.058 170.712C712.46 170.712 711.97 171.692 711.693 172.118H711.586V168.091H710.329ZM716.295 174.909C716.295 176.656 715.486 178.041 713.909 178.041C712.396 178.041 711.565 176.763 711.565 174.909C711.565 173.077 712.375 171.841 713.909 171.841C715.507 171.841 716.295 173.183 716.295 174.909ZM721.286 179.81C720.818 181.024 720.242 181.131 719.347 180.918L719.028 182.026C719.156 182.089 719.518 182.175 719.944 182.175C721.073 182.175 721.883 181.578 722.352 180.321L725.867 170.818H724.504L722.245 177.338H722.155L719.901 170.818H718.538L721.574 179.053L721.286 179.81ZM733.855 179.81C733.386 181.024 732.811 181.131 731.916 180.918L731.596 182.026C731.724 182.089 732.086 182.175 732.512 182.175C733.642 182.175 734.451 181.578 734.92 180.321L738.436 170.818H737.072L734.813 177.338H734.723L732.47 170.818H731.106L734.142 179.053L733.855 179.81ZM743.14 179.17C745.356 179.17 746.848 177.487 746.848 174.952C746.848 172.395 745.356 170.712 743.14 170.712C740.925 170.712 739.433 172.395 739.433 174.952C739.433 177.487 740.925 179.17 743.14 179.17ZM743.14 178.041C741.457 178.041 740.69 176.592 740.69 174.952C740.69 173.311 741.457 171.841 743.14 171.841C744.824 171.841 745.591 173.311 745.591 174.952C745.591 176.592 744.824 178.041 743.14 178.041ZM753.835 175.761C753.835 177.295 752.663 177.892 751.726 177.892C750.682 177.892 749.936 177.21 749.936 176.017V170.818H748.679V176.017C748.679 178.169 750.128 179.107 751.321 179.107C752.557 179.107 753.345 178.467 753.75 177.849H753.835V179H755.092V170.818H753.835V175.761ZM761.912 170.989C761.656 170.839 761.251 170.69 760.825 170.69C759.866 170.69 758.971 171.436 758.737 172.224H758.652V170.818H757.395V179H758.652V174.376C758.673 173.268 759.44 171.99 760.782 171.99C761.145 171.99 761.358 172.097 761.486 172.161L761.912 170.989ZM608.692 191.268C608.479 189.734 607.179 188.712 605.453 188.712C603.237 188.712 601.767 190.459 601.767 192.909C601.767 195.423 603.195 197.17 605.474 197.17C607.286 197.17 608.479 196.062 608.692 194.614H607.435C607.2 195.509 606.455 196.041 605.474 196.041C603.983 196.041 603.024 194.805 603.024 192.909C603.024 191.055 604.004 189.841 605.474 189.841C606.582 189.841 607.243 190.523 607.435 191.268H608.692ZM615.686 193.761C615.686 195.295 614.514 195.892 613.576 195.892C612.532 195.892 611.787 195.21 611.787 194.017V188.818H610.529V194.017C610.529 196.169 611.978 197.107 613.172 197.107C614.407 197.107 615.196 196.467 615.6 195.849H615.686V197H616.943V188.818H615.686V193.761ZM624.892 190.651C624.465 189.457 623.549 188.712 622.036 188.712C620.311 188.712 619.032 189.692 619.032 191.077C619.032 192.078 619.693 192.973 621.184 193.357L622.548 193.697C623.358 193.889 623.72 194.251 623.72 194.784C623.72 195.466 623.038 196.084 621.866 196.084C620.652 196.084 620.076 195.423 619.778 194.678L618.627 195.104C619.032 196.126 619.927 197.17 621.887 197.17C623.911 197.17 624.998 195.999 624.998 194.741C624.998 193.804 624.38 192.952 622.889 192.589L621.674 192.291C620.737 192.057 620.289 191.567 620.289 191.013C620.289 190.31 621.035 189.777 622.036 189.777C623.294 189.777 623.613 190.608 623.762 190.97L624.892 190.651ZM630.381 188.818H628.634V187.071H627.377V188.818H626.141V189.99H627.377V194.997C627.377 196.425 628.527 197.107 629.592 197.107C630.061 197.107 630.359 197.021 630.53 196.957L630.274 195.828C630.168 195.849 629.997 195.892 629.72 195.892C629.166 195.892 628.634 195.722 628.634 194.656V189.99H630.381V188.818ZM635.504 197.17C637.72 197.17 639.211 195.487 639.211 192.952C639.211 190.395 637.72 188.712 635.504 188.712C633.288 188.712 631.796 190.395 631.796 192.952C631.796 195.487 633.288 197.17 635.504 197.17ZM635.504 196.041C633.82 196.041 633.053 194.592 633.053 192.952C633.053 191.311 633.82 189.841 635.504 189.841C637.187 189.841 637.954 191.311 637.954 192.952C637.954 194.592 637.187 196.041 635.504 196.041ZM647.032 191.865C647.032 190.714 647.671 189.926 648.779 189.926C649.461 189.926 650.377 190.331 650.377 191.609V197H651.634V191.652C651.634 189.649 650.526 188.712 649.163 188.712C647.97 188.712 647.032 189.5 646.798 190.182H646.712C646.35 189.372 645.626 188.712 644.603 188.712C643.559 188.712 642.707 189.5 642.472 190.203H642.387V188.818H641.13V197H642.387V192.121C642.387 190.778 643.303 189.926 644.262 189.926C645.178 189.926 645.754 190.416 645.754 191.652V197H647.032V191.865ZM657.319 197.17C658.981 197.17 660.196 196.339 660.579 195.104L659.365 194.763C659.045 195.615 658.321 196.041 657.319 196.041C655.838 196.041 654.906 195.104 654.778 193.335H660.707V192.803C660.707 189.756 658.896 188.712 657.191 188.712C654.975 188.712 653.505 190.459 653.505 192.973C653.505 195.487 654.954 197.17 657.319 197.17ZM657.191 189.841C658.555 189.841 659.429 190.864 659.429 192.249H654.805C655.007 190.714 655.934 189.841 657.191 189.841ZM667.166 188.989C666.91 188.839 666.505 188.69 666.079 188.69C665.12 188.69 664.225 189.436 663.991 190.224H663.906V188.818H662.649V197H663.906V192.376C663.927 191.268 664.694 189.99 666.036 189.99C666.399 189.99 666.612 190.097 666.74 190.161L667.166 188.989ZM673.949 190.651C673.523 189.457 672.607 188.712 671.094 188.712C669.368 188.712 668.09 189.692 668.09 191.077C668.09 192.078 668.75 192.973 670.242 193.357L671.605 193.697C672.415 193.889 672.777 194.251 672.777 194.784C672.777 195.466 672.096 196.084 670.924 196.084C669.709 196.084 669.134 195.423 668.836 194.678L667.685 195.104C668.09 196.126 668.985 197.17 670.945 197.17C672.969 197.17 674.056 195.999 674.056 194.741C674.056 193.804 673.438 192.952 671.946 192.589L670.732 192.291C669.794 192.057 669.347 191.567 669.347 191.013C669.347 190.31 670.093 189.777 671.094 189.777C672.351 189.777 672.671 190.608 672.82 190.97L673.949 190.651ZM677.85 195.636H676.486V196.659C676.486 197.469 676.209 198.214 675.847 199.067L676.912 199.28C677.466 198.449 677.828 197.575 677.85 196.638V195.636ZM684.431 200.068H685.688V195.743H685.794C686.071 196.19 686.604 197.17 688.181 197.17C690.226 197.17 691.654 195.53 691.654 192.93C691.654 190.352 690.226 188.712 688.16 188.712C686.562 188.712 686.071 189.692 685.794 190.118H685.645V188.818H684.431V200.068ZM690.397 192.909C690.397 194.656 689.587 196.041 688.01 196.041C686.498 196.041 685.667 194.763 685.667 192.909C685.667 191.077 686.476 189.841 688.01 189.841C689.608 189.841 690.397 191.183 690.397 192.909ZM698.472 197H699.729V191.609C699.729 189.01 697.748 188.712 696.704 188.712C695.468 188.712 694.062 189.138 693.422 190.629L694.616 191.055C694.892 190.459 695.553 189.82 696.767 189.82C697.748 189.82 698.472 190.246 698.472 191.609V191.631C698.472 192.163 697.492 192.121 696.363 192.27C694.829 192.462 693.188 192.824 693.188 194.678C693.188 196.276 694.424 197.192 695.979 197.192C697.407 197.192 698.152 196.425 698.408 195.892H698.472V197ZM698.472 194.038C698.472 195.061 697.662 196.062 696.171 196.062C695.169 196.062 694.445 195.615 694.445 194.741C694.445 193.783 695.319 193.484 696.299 193.357C696.831 193.293 698.259 193.143 698.472 192.888V194.038ZM706.541 188.989C706.285 188.839 705.88 188.69 705.454 188.69C704.495 188.69 703.6 189.436 703.366 190.224H703.281V188.818H702.024V197H703.281V192.376C703.302 191.268 704.069 189.99 705.411 189.99C705.774 189.99 705.987 190.097 706.115 190.161L706.541 188.989ZM711.767 188.818H710.02V187.071H708.763V188.818H707.527V189.99H708.763V194.997C708.763 196.425 709.914 197.107 710.979 197.107C711.448 197.107 711.746 197.021 711.917 196.957L711.661 195.828C711.554 195.849 711.384 195.892 711.107 195.892C710.553 195.892 710.02 195.722 710.02 194.656V189.99H711.767V188.818ZM714.926 192.163C714.926 190.629 716.098 189.926 717.036 189.926C718.08 189.926 718.825 190.693 718.825 191.886V197H720.082V191.801C720.082 189.713 718.975 188.712 717.44 188.712C716.205 188.712 715.395 189.372 715.011 190.203H714.926V188.818H713.669V197H714.926V192.163ZM725.771 197.17C727.433 197.17 728.648 196.339 729.031 195.104L727.817 194.763C727.497 195.615 726.773 196.041 725.771 196.041C724.291 196.041 723.358 195.104 723.231 193.335H729.159V192.803C729.159 189.756 727.348 188.712 725.644 188.712C723.428 188.712 721.957 190.459 721.957 192.973C721.957 195.487 723.406 197.17 725.771 197.17ZM725.644 189.841C727.007 189.841 727.881 190.864 727.881 192.249H723.257C723.46 190.714 724.386 189.841 725.644 189.841ZM735.618 188.989C735.362 188.839 734.957 188.69 734.531 188.69C733.572 188.69 732.677 189.436 732.443 190.224H732.358V188.818H731.101V197H732.358V192.376C732.379 191.268 733.146 189.99 734.489 189.99C734.851 189.99 735.064 190.097 735.192 190.161L735.618 188.989ZM742.401 190.651C741.975 189.457 741.059 188.712 739.546 188.712C737.82 188.712 736.542 189.692 736.542 191.077C736.542 192.078 737.203 192.973 738.694 193.357L740.058 193.697C740.867 193.889 741.229 194.251 741.229 194.784C741.229 195.466 740.548 196.084 739.376 196.084C738.161 196.084 737.586 195.423 737.288 194.678L736.137 195.104C736.542 196.126 737.437 197.17 739.397 197.17C741.421 197.17 742.508 195.999 742.508 194.741C742.508 193.804 741.89 192.952 740.399 192.589L739.184 192.291C738.247 192.057 737.799 191.567 737.799 191.013C737.799 190.31 738.545 189.777 739.546 189.777C740.803 189.777 741.123 190.608 741.272 190.97L742.401 190.651ZM753.653 197H754.91V191.609C754.91 189.01 752.928 188.712 751.884 188.712C750.648 188.712 749.242 189.138 748.603 190.629L749.796 191.055C750.073 190.459 750.734 189.82 751.948 189.82C752.928 189.82 753.653 190.246 753.653 191.609V191.631C753.653 192.163 752.673 192.121 751.543 192.27C750.009 192.462 748.369 192.824 748.369 194.678C748.369 196.276 749.604 197.192 751.16 197.192C752.587 197.192 753.333 196.425 753.589 195.892H753.653V197ZM753.653 194.038C753.653 195.061 752.843 196.062 751.352 196.062C750.35 196.062 749.626 195.615 749.626 194.741C749.626 193.783 750.499 193.484 751.479 193.357C752.012 193.293 753.44 193.143 753.653 192.888V194.038ZM758.461 192.163C758.461 190.629 759.633 189.926 760.571 189.926C761.615 189.926 762.361 190.693 762.361 191.886V197H763.618V191.801C763.618 189.713 762.51 188.712 760.976 188.712C759.74 188.712 758.93 189.372 758.547 190.203H758.461V188.818H757.204V197H758.461V192.163ZM772.716 197V186.091H771.459V190.118H771.373C771.096 189.692 770.585 188.712 768.987 188.712C766.92 188.712 765.493 190.352 765.493 192.93C765.493 195.53 766.92 197.17 768.966 197.17C770.542 197.17 771.096 196.19 771.373 195.743H771.501V197H772.716ZM766.75 192.909C766.75 191.183 767.538 189.841 769.136 189.841C770.67 189.841 771.48 191.077 771.48 192.909C771.48 194.763 770.649 196.041 769.136 196.041C767.559 196.041 766.75 194.656 766.75 192.909ZM608.99 215V204.091H607.733V208.118H607.648C607.371 207.692 606.859 206.712 605.261 206.712C603.195 206.712 601.767 208.352 601.767 210.93C601.767 213.53 603.195 215.17 605.24 215.17C606.817 215.17 607.371 214.19 607.648 213.743H607.776V215H608.99ZM603.024 210.909C603.024 209.183 603.812 207.841 605.411 207.841C606.945 207.841 607.754 209.077 607.754 210.909C607.754 212.763 606.923 214.041 605.411 214.041C603.834 214.041 603.024 212.656 603.024 210.909ZM614.722 215.17C616.384 215.17 617.598 214.339 617.982 213.104L616.767 212.763C616.447 213.615 615.723 214.041 614.722 214.041C613.241 214.041 612.309 213.104 612.181 211.335H618.109V210.803C618.109 207.756 616.298 206.712 614.594 206.712C612.378 206.712 610.908 208.459 610.908 210.973C610.908 213.487 612.357 215.17 614.722 215.17ZM614.594 207.841C615.957 207.841 616.831 208.864 616.831 210.249H612.207C612.41 208.714 613.337 207.841 614.594 207.841ZM626.492 206.818H625.129L622.87 213.338H622.785L620.526 206.818H619.163L622.188 215H623.467L626.492 206.818ZM631.304 215.17C632.966 215.17 634.18 214.339 634.564 213.104L633.349 212.763C633.029 213.615 632.305 214.041 631.304 214.041C629.823 214.041 628.891 213.104 628.763 211.335H634.691V210.803C634.691 207.756 632.88 206.712 631.176 206.712C628.96 206.712 627.49 208.459 627.49 210.973C627.49 213.487 628.939 215.17 631.304 215.17ZM631.176 207.841C632.539 207.841 633.413 208.864 633.413 210.249H628.789C628.992 208.714 629.919 207.841 631.176 207.841ZM637.89 204.091H636.633V215H637.89V204.091ZM643.516 215.17C645.732 215.17 647.224 213.487 647.224 210.952C647.224 208.395 645.732 206.712 643.516 206.712C641.301 206.712 639.809 208.395 639.809 210.952C639.809 213.487 641.301 215.17 643.516 215.17ZM643.516 214.041C641.833 214.041 641.066 212.592 641.066 210.952C641.066 209.311 641.833 207.841 643.516 207.841C645.2 207.841 645.967 209.311 645.967 210.952C645.967 212.592 645.2 214.041 643.516 214.041ZM648.967 218.068H650.224V213.743H650.331C650.608 214.19 651.14 215.17 652.717 215.17C654.762 215.17 656.19 213.53 656.19 210.93C656.19 208.352 654.762 206.712 652.696 206.712C651.098 206.712 650.608 207.692 650.331 208.118H650.181V206.818H648.967V218.068ZM654.933 210.909C654.933 212.656 654.123 214.041 652.547 214.041C651.034 214.041 650.203 212.763 650.203 210.909C650.203 209.077 651.012 207.841 652.547 207.841C654.145 207.841 654.933 209.183 654.933 210.909ZM661.538 215.17C663.2 215.17 664.414 214.339 664.798 213.104L663.583 212.763C663.264 213.615 662.539 214.041 661.538 214.041C660.057 214.041 659.125 213.104 658.997 211.335H664.926V210.803C664.926 207.756 663.115 206.712 661.41 206.712C659.194 206.712 657.724 208.459 657.724 210.973C657.724 213.487 659.173 215.17 661.538 215.17ZM661.41 207.841C662.774 207.841 663.647 208.864 663.647 210.249H659.024C659.226 208.714 660.153 207.841 661.41 207.841ZM671.384 206.989C671.129 206.839 670.724 206.69 670.298 206.69C669.339 206.69 668.444 207.436 668.21 208.224H668.124V206.818H666.867V215H668.124V210.376C668.146 209.268 668.913 207.99 670.255 207.99C670.617 207.99 670.83 208.097 670.958 208.161L671.384 206.989ZM678.168 208.651C677.742 207.457 676.826 206.712 675.313 206.712C673.587 206.712 672.309 207.692 672.309 209.077C672.309 210.078 672.969 210.973 674.461 211.357L675.824 211.697C676.634 211.889 676.996 212.251 676.996 212.784C676.996 213.466 676.314 214.084 675.142 214.084C673.928 214.084 673.353 213.423 673.054 212.678L671.904 213.104C672.309 214.126 673.203 215.17 675.164 215.17C677.188 215.17 678.275 213.999 678.275 212.741C678.275 211.804 677.657 210.952 676.165 210.589L674.951 210.291C674.013 210.057 673.566 209.567 673.566 209.013C673.566 208.31 674.311 207.777 675.313 207.777C676.57 207.777 676.89 208.608 677.039 208.97L678.168 208.651Z" fill="black"/>
<path d="M44.5582 160L45.6165 156.903H51.1847L52.2429 160H55.2472L49.8849 145.455H46.9091L41.5469 160H44.5582ZM48.3153 148.991H48.4858L50.4034 154.602H46.3977L48.3153 148.991ZM56.9908 164.091H59.7464V158.707H59.8743C60.2436 159.46 61.103 160.192 62.5518 160.192C64.9879 160.192 66.8913 158.196 66.8913 154.553C66.8913 150.866 64.9098 148.949 62.5447 148.949C61.0888 148.949 60.2436 149.695 59.8743 150.44H59.7109V149.091H56.9908V164.091ZM64.2706 154.545C64.2706 156.584 63.4396 157.947 61.8203 157.947C60.13 157.947 59.4908 156.456 59.4908 154.545C59.4908 152.621 60.1442 151.186 61.8203 151.186C63.4467 151.186 64.2706 152.514 64.2706 154.545ZM68.7876 164.091H71.5433V158.707H71.6712C72.0405 159.46 72.8999 160.192 74.3487 160.192C76.7848 160.192 78.6882 158.196 78.6882 154.553C78.6882 150.866 76.7067 148.949 74.3416 148.949C72.8857 148.949 72.0405 149.695 71.6712 150.44H71.5078V149.091H68.7876V164.091ZM76.0675 154.545C76.0675 156.584 75.2365 157.947 73.6172 157.947C71.9268 157.947 71.2876 156.456 71.2876 154.545C71.2876 152.621 71.9411 151.186 73.6172 151.186C75.2436 151.186 76.0675 152.514 76.0675 154.545ZM83.4183 145.455H80.6626V160H83.4183V145.455ZM87.2624 148.182C88.1573 148.182 88.8178 147.521 88.8178 146.719C88.8178 145.938 88.1573 145.256 87.2624 145.256C86.3675 145.256 85.6786 145.938 85.6786 146.719C85.6786 147.521 86.3675 148.182 87.2624 148.182ZM88.6332 149.091H85.8775V160H88.6332V149.091ZM100.354 152.571C99.956 150.369 98.1662 148.949 95.6875 148.949C92.5625 148.949 90.6165 151.257 90.6165 154.545C90.6165 157.862 92.5412 160.206 95.6946 160.206C98.152 160.206 99.8991 158.786 100.332 156.705L97.7543 156.335C97.4773 157.315 96.7884 157.947 95.6946 157.947C94.054 157.947 93.2585 156.591 93.2585 154.545C93.2585 152.521 94.0682 151.186 95.6946 151.186C96.902 151.186 97.5341 151.925 97.7898 152.955L100.354 152.571ZM108.337 160H110.993V152.678C110.993 149.908 108.876 148.949 106.71 148.949C104.388 148.949 102.591 150.036 102.087 152.045L104.679 152.422C104.878 151.683 105.624 151.101 106.639 151.101C107.598 151.101 108.216 151.648 108.216 152.621V152.784C108.216 153.359 107.222 153.395 106.256 153.501C103.493 153.757 101.866 154.815 101.866 156.925C101.866 159.034 103.479 160.22 105.418 160.22C106.952 160.22 107.832 159.467 108.209 158.771H108.337V160ZM108.216 156.364C108.216 157.315 107.293 158.132 106.078 158.132C105.169 158.132 104.551 157.67 104.551 156.889C104.551 155.945 105.212 155.504 106.518 155.355C107.016 155.291 108.01 155.149 108.216 154.922V156.364ZM118.409 149.091H116.506V146.761H113.75V149.091H112.394V151.136H113.75V157.081C113.75 158.999 115.185 160.142 116.84 160.142C117.848 160.142 118.537 159.95 118.743 159.865L118.31 157.741C118.125 157.791 117.863 157.827 117.607 157.827C117.003 157.827 116.506 157.678 116.506 156.662V151.136H118.409V149.091ZM121.911 148.182C122.806 148.182 123.466 147.521 123.466 146.719C123.466 145.938 122.806 145.256 121.911 145.256C121.016 145.256 120.327 145.938 120.327 146.719C120.327 147.521 121.016 148.182 121.911 148.182ZM123.282 149.091H120.526V160H123.282V149.091ZM130.343 160.206C133.475 160.206 135.421 157.884 135.421 154.567C135.421 151.229 133.475 148.949 130.343 148.949C127.218 148.949 125.265 151.229 125.265 154.567C125.265 157.884 127.218 160.206 130.343 160.206ZM130.343 157.947C128.624 157.947 127.907 156.499 127.907 154.567C127.907 152.628 128.624 151.186 130.343 151.186C132.069 151.186 132.779 152.628 132.779 154.567C132.779 156.499 132.069 157.947 130.343 157.947ZM140.078 153.999C140.078 152.301 140.853 151.222 142.081 151.222C143.125 151.222 143.907 151.96 143.907 153.26V160H146.669V153.146C146.669 150.114 144.958 148.949 143.047 148.949C141.669 148.949 140.611 149.581 140.022 150.476H139.908V149.091H137.323V160H140.078V153.999ZM159.556 160C163.875 160 166.467 157.266 166.467 152.72C166.467 148.182 163.875 145.455 159.62 145.455H154.62V160H159.556ZM159.464 147.884C162.22 147.884 163.662 149.425 163.662 152.72C163.662 156.016 162.22 157.571 159.422 157.571H157.426V147.884H159.464ZM174.606 160H177.262V152.678C177.262 149.908 175.146 148.949 172.98 148.949C170.657 148.949 168.86 150.036 168.356 152.045L170.949 152.422C171.147 151.683 171.893 151.101 172.909 151.101C173.868 151.101 174.485 151.648 174.485 152.621V152.784C174.485 153.359 173.491 153.395 172.525 153.501C169.762 153.757 168.136 154.815 168.136 156.925C168.136 159.034 169.748 160.22 171.687 160.22C173.221 160.22 174.102 159.467 174.478 158.771H174.606V160ZM174.485 156.364C174.485 157.315 173.562 158.132 172.348 158.132C171.439 158.132 170.821 157.67 170.821 156.889C170.821 155.945 171.481 155.504 172.788 155.355C173.285 155.291 174.279 155.149 174.485 154.922V156.364ZM184.679 149.091H182.776V146.761H180.02V149.091H178.663V151.136H180.02V157.081C180.02 158.999 181.455 160.142 183.109 160.142C184.118 160.142 184.807 159.95 185.013 159.865L184.58 157.741C184.395 157.791 184.132 157.827 183.876 157.827C183.273 157.827 182.776 157.678 182.776 156.662V151.136H184.679V149.091ZM192.79 160H195.446V152.678C195.446 149.908 193.33 148.949 191.163 148.949C188.841 148.949 187.044 150.036 186.54 152.045L189.132 152.422C189.331 151.683 190.077 151.101 191.092 151.101C192.051 151.101 192.669 151.648 192.669 152.621V152.784C192.669 153.359 191.675 153.395 190.709 153.501C187.946 153.757 186.32 154.815 186.32 156.925C186.32 159.034 187.932 160.22 189.871 160.22C191.405 160.22 192.286 159.467 192.662 158.771H192.79V160ZM192.669 156.364C192.669 157.315 191.746 158.132 190.531 158.132C189.622 158.132 189.004 157.67 189.004 156.889C189.004 155.945 189.665 155.504 190.972 155.355C191.469 155.291 192.463 155.149 192.669 154.922V156.364ZM48.2443 170.903H49.5227C49.4162 169.178 47.946 167.942 45.8366 167.942C43.7486 167.942 42.108 169.156 42.108 170.989C42.108 172.459 43.1733 173.332 44.8778 173.822L46.2202 174.206C47.6903 174.632 48.3935 175.037 48.3935 176.017C48.3935 177.21 47.2429 177.999 45.7301 177.999C44.4304 177.999 43.2798 177.423 43.1733 176.188H41.8097C41.9375 177.977 43.3864 179.192 45.7301 179.192C48.2443 179.192 49.6719 177.807 49.6719 176.017C49.6719 174.504 48.6705 173.588 46.6037 173.034L45.4957 172.736C44.0469 172.352 43.3864 171.82 43.3864 170.946C43.3864 169.881 44.3452 169.114 45.794 169.114C47.1151 169.114 48.0526 169.732 48.2443 170.903ZM55.1025 179.17C56.7644 179.17 57.9789 178.339 58.3624 177.104L57.1479 176.763C56.8283 177.615 56.1039 178.041 55.1025 178.041C53.6216 178.041 52.6895 177.104 52.5616 175.335H58.4902V174.803C58.4902 171.756 56.6792 170.712 54.9746 170.712C52.7587 170.712 51.2885 172.459 51.2885 174.973C51.2885 177.487 52.7374 179.17 55.1025 179.17ZM54.9746 171.841C56.3382 171.841 57.2118 172.864 57.2118 174.249H52.5882C52.7907 172.714 53.7175 171.841 54.9746 171.841ZM61.6889 174.163C61.6889 172.629 62.8608 171.926 63.7983 171.926C64.8423 171.926 65.5881 172.693 65.5881 173.886V179H66.8452V173.801C66.8452 171.713 65.7372 170.712 64.2031 170.712C62.9673 170.712 62.1577 171.372 61.7741 172.203H61.6889V170.818H60.4318V179H61.6889V174.163ZM75.9432 179V168.091H74.6861V172.118H74.6009C74.3239 171.692 73.8125 170.712 72.2145 170.712C70.1477 170.712 68.7202 172.352 68.7202 174.93C68.7202 177.53 70.1477 179.17 72.1932 179.17C73.7699 179.17 74.3239 178.19 74.6009 177.743H74.7287V179H75.9432ZM69.9773 174.909C69.9773 173.183 70.7656 171.841 72.3636 171.841C73.8977 171.841 74.7074 173.077 74.7074 174.909C74.7074 176.763 73.8764 178.041 72.3636 178.041C70.7869 178.041 69.9773 176.656 69.9773 174.909ZM85.8935 170.818H84.1463V169.071H82.8892V170.818H81.6534V171.99H82.8892V176.997C82.8892 178.425 84.0398 179.107 85.1051 179.107C85.5739 179.107 85.8722 179.021 86.0426 178.957L85.7869 177.828C85.6804 177.849 85.5099 177.892 85.233 177.892C84.679 177.892 84.1463 177.722 84.1463 176.656V171.99H85.8935V170.818ZM89.0522 174.057C89.0522 172.523 90.1602 171.926 91.1616 171.926C92.2482 171.926 92.9513 172.608 92.9513 173.801V179H94.2085V173.801C94.2085 171.777 93.1005 170.712 91.5664 170.712C90.3306 170.712 89.5423 171.351 89.1374 171.969H89.0522V168.091H87.7951V179H89.0522V174.057ZM99.8974 179.17C101.559 179.17 102.774 178.339 103.157 177.104L101.943 176.763C101.623 177.615 100.899 178.041 99.8974 178.041C98.4165 178.041 97.4844 177.104 97.3565 175.335H103.285V174.803C103.285 171.756 101.474 170.712 99.7695 170.712C97.5536 170.712 96.0835 172.459 96.0835 174.973C96.0835 177.487 97.5323 179.17 99.8974 179.17ZM99.7695 171.841C101.133 171.841 102.007 172.864 102.007 174.249H97.3832C97.5856 172.714 98.5124 171.841 99.7695 171.841ZM114.346 179H115.603V173.609C115.603 171.01 113.622 170.712 112.578 170.712C111.342 170.712 109.936 171.138 109.296 172.629L110.49 173.055C110.767 172.459 111.427 171.82 112.642 171.82C113.622 171.82 114.346 172.246 114.346 173.609V173.631C114.346 174.163 113.366 174.121 112.237 174.27C110.703 174.462 109.062 174.824 109.062 176.678C109.062 178.276 110.298 179.192 111.853 179.192C113.281 179.192 114.026 178.425 114.282 177.892H114.346V179ZM114.346 176.038C114.346 177.061 113.536 178.062 112.045 178.062C111.044 178.062 110.319 177.615 110.319 176.741C110.319 175.783 111.193 175.484 112.173 175.357C112.705 175.293 114.133 175.143 114.346 174.888V176.038ZM117.898 182.068H119.155V177.743H119.261C119.538 178.19 120.071 179.17 121.648 179.17C123.693 179.17 125.121 177.53 125.121 174.93C125.121 172.352 123.693 170.712 121.626 170.712C120.028 170.712 119.538 171.692 119.261 172.118H119.112V170.818H117.898V182.068ZM123.864 174.909C123.864 176.656 123.054 178.041 121.477 178.041C119.964 178.041 119.133 176.763 119.133 174.909C119.133 173.077 119.943 171.841 121.477 171.841C123.075 171.841 123.864 173.183 123.864 174.909ZM127.038 182.068H128.295V177.743H128.402C128.679 178.19 129.212 179.17 130.788 179.17C132.834 179.17 134.261 177.53 134.261 174.93C134.261 172.352 132.834 170.712 130.767 170.712C129.169 170.712 128.679 171.692 128.402 172.118H128.253V170.818H127.038V182.068ZM133.004 174.909C133.004 176.656 132.195 178.041 130.618 178.041C129.105 178.041 128.274 176.763 128.274 174.909C128.274 173.077 129.084 171.841 130.618 171.841C132.216 171.841 133.004 173.183 133.004 174.909ZM137.436 168.091H136.179V179H137.436V168.091ZM140.356 169.646C140.91 169.646 141.251 169.263 141.251 168.794C141.251 168.368 140.91 167.942 140.356 167.942C139.802 167.942 139.461 168.368 139.461 168.794C139.461 169.263 139.802 169.646 140.356 169.646ZM140.996 170.818H139.738V179H140.996V170.818ZM149.839 173.268C149.626 171.734 148.326 170.712 146.601 170.712C144.385 170.712 142.915 172.459 142.915 174.909C142.915 177.423 144.342 179.17 146.622 179.17C148.433 179.17 149.626 178.062 149.839 176.614H148.582C148.348 177.509 147.602 178.041 146.622 178.041C145.13 178.041 144.172 176.805 144.172 174.909C144.172 173.055 145.152 171.841 146.622 171.841C147.73 171.841 148.39 172.523 148.582 173.268H149.839ZM156.578 179H157.835V173.609C157.835 171.01 155.853 170.712 154.809 170.712C153.573 170.712 152.167 171.138 151.528 172.629L152.721 173.055C152.998 172.459 153.658 171.82 154.873 171.82C155.853 171.82 156.578 172.246 156.578 173.609V173.631C156.578 174.163 155.597 174.121 154.468 174.27C152.934 174.462 151.293 174.824 151.293 176.678C151.293 178.276 152.529 179.192 154.085 179.192C155.512 179.192 156.258 178.425 156.514 177.892H156.578V179ZM156.578 176.038C156.578 177.061 155.768 178.062 154.276 178.062C153.275 178.062 152.551 177.615 152.551 176.741C152.551 175.783 153.424 175.484 154.404 175.357C154.937 175.293 156.364 175.143 156.578 174.888V176.038ZM163.472 170.818H161.724V169.071H160.467V170.818H159.232V171.99H160.467V176.997C160.467 178.425 161.618 179.107 162.683 179.107C163.152 179.107 163.45 179.021 163.621 178.957L163.365 177.828C163.259 177.849 163.088 177.892 162.811 177.892C162.257 177.892 161.724 177.722 161.724 176.656V171.99H163.472V170.818ZM165.991 169.646C166.545 169.646 166.886 169.263 166.886 168.794C166.886 168.368 166.545 167.942 165.991 167.942C165.437 167.942 165.096 168.368 165.096 168.794C165.096 169.263 165.437 169.646 165.991 169.646ZM166.63 170.818H165.373V179H166.63V170.818ZM172.257 179.17C174.473 179.17 175.964 177.487 175.964 174.952C175.964 172.395 174.473 170.712 172.257 170.712C170.041 170.712 168.549 172.395 168.549 174.952C168.549 177.487 170.041 179.17 172.257 179.17ZM172.257 178.041C170.573 178.041 169.806 176.592 169.806 174.952C169.806 173.311 170.573 171.841 172.257 171.841C173.94 171.841 174.707 173.311 174.707 174.952C174.707 176.592 173.94 178.041 172.257 178.041ZM179.14 174.163C179.14 172.629 180.312 171.926 181.249 171.926C182.294 171.926 183.039 172.693 183.039 173.886V179H184.296V173.801C184.296 171.713 183.188 170.712 181.654 170.712C180.419 170.712 179.609 171.372 179.225 172.203H179.14V170.818H177.883V179H179.14V174.163ZM197.657 179V168.091H196.4V172.118H196.315C196.038 171.692 195.526 170.712 193.928 170.712C191.862 170.712 190.434 172.352 190.434 174.93C190.434 177.53 191.862 179.17 193.907 179.17C195.484 179.17 196.038 178.19 196.315 177.743H196.443V179H197.657ZM191.691 174.909C191.691 173.183 192.479 171.841 194.078 171.841C195.612 171.841 196.421 173.077 196.421 174.909C196.421 176.763 195.59 178.041 194.078 178.041C192.501 178.041 191.691 176.656 191.691 174.909ZM204.859 179H206.116V173.609C206.116 171.01 204.134 170.712 203.09 170.712C201.854 170.712 200.448 171.138 199.809 172.629L201.002 173.055C201.279 172.459 201.94 171.82 203.154 171.82C204.134 171.82 204.859 172.246 204.859 173.609V173.631C204.859 174.163 203.879 174.121 202.749 174.27C201.215 174.462 199.575 174.824 199.575 176.678C199.575 178.276 200.81 179.192 202.366 179.192C203.793 179.192 204.539 178.425 204.795 177.892H204.859V179ZM204.859 176.038C204.859 177.061 204.049 178.062 202.558 178.062C201.556 178.062 200.832 177.615 200.832 176.741C200.832 175.783 201.705 175.484 202.685 175.357C203.218 175.293 204.646 175.143 204.859 174.888V176.038ZM211.753 170.818H210.006V169.071H208.749V170.818H207.513V171.99H208.749V176.997C208.749 178.425 209.899 179.107 210.964 179.107C211.433 179.107 211.732 179.021 211.902 178.957L211.646 177.828C211.54 177.849 211.369 177.892 211.092 177.892C210.538 177.892 210.006 177.722 210.006 176.656V171.99H211.753V170.818ZM218.555 179H219.812V173.609C219.812 171.01 217.831 170.712 216.787 170.712C215.551 170.712 214.145 171.138 213.505 172.629L214.699 173.055C214.975 172.459 215.636 171.82 216.85 171.82C217.831 171.82 218.555 172.246 218.555 173.609V173.631C218.555 174.163 217.575 174.121 216.446 174.27C214.912 174.462 213.271 174.824 213.271 176.678C213.271 178.276 214.507 179.192 216.062 179.192C217.49 179.192 218.235 178.425 218.491 177.892H218.555V179ZM218.555 176.038C218.555 177.061 217.745 178.062 216.254 178.062C215.252 178.062 214.528 177.615 214.528 176.741C214.528 175.783 215.402 175.484 216.382 175.357C216.914 175.293 218.342 175.143 218.555 174.888V176.038ZM45.581 188.818H43.8338V187.071H42.5767V188.818H41.3409V189.99H42.5767V194.997C42.5767 196.425 43.7273 197.107 44.7926 197.107C45.2614 197.107 45.5597 197.021 45.7301 196.957L45.4744 195.828C45.3679 195.849 45.1974 195.892 44.9205 195.892C44.3665 195.892 43.8338 195.722 43.8338 194.656V189.99H45.581V188.818ZM50.7039 197.17C52.9198 197.17 54.4113 195.487 54.4113 192.952C54.4113 190.395 52.9198 188.712 50.7039 188.712C48.488 188.712 46.9965 190.395 46.9965 192.952C46.9965 195.487 48.488 197.17 50.7039 197.17ZM50.7039 196.041C49.0207 196.041 48.2536 194.592 48.2536 192.952C48.2536 191.311 49.0207 189.841 50.7039 189.841C52.3872 189.841 53.1542 191.311 53.1542 192.952C53.1542 194.592 52.3872 196.041 50.7039 196.041ZM61.1669 197L62.195 194.081H66.744L67.772 197H69.157L65.1513 186.091H63.7876L59.782 197H61.1669ZM64.4055 187.817H64.5334L66.3285 192.909H62.6104L64.4055 187.817ZM70.6857 200.068H71.9428V195.743H72.0494C72.3263 196.19 72.859 197.17 74.4357 197.17C76.4812 197.17 77.9087 195.53 77.9087 192.93C77.9087 190.352 76.4812 188.712 74.4144 188.712C72.8164 188.712 72.3263 189.692 72.0494 190.118H71.9002V188.818H70.6857V200.068ZM76.6516 192.909C76.6516 194.656 75.842 196.041 74.2653 196.041C72.7525 196.041 71.9215 194.763 71.9215 192.909C71.9215 191.077 72.7312 189.841 74.2653 189.841C75.8633 189.841 76.6516 191.183 76.6516 192.909ZM80.4442 187.646C80.9982 187.646 81.3391 187.263 81.3391 186.794C81.3391 186.368 80.9982 185.942 80.4442 185.942C79.8903 185.942 79.5494 186.368 79.5494 186.794C79.5494 187.263 79.8903 187.646 80.4442 187.646ZM81.0835 188.818H79.8263V197H81.0835V188.818ZM86.8163 188.818H85.0692V187.071H83.8121V188.818H82.5763V189.99H83.8121V194.997C83.8121 196.425 84.9626 197.107 86.028 197.107C86.4967 197.107 86.795 197.021 86.9655 196.957L86.7098 195.828C86.6032 195.849 86.4328 195.892 86.1558 195.892C85.6018 195.892 85.0692 195.722 85.0692 194.656V189.99H86.8163V188.818ZM93.6185 197H94.8756V191.609C94.8756 189.01 92.8941 188.712 91.8501 188.712C90.6143 188.712 89.208 189.138 88.5688 190.629L89.762 191.055C90.039 190.459 90.6995 189.82 91.914 189.82C92.8941 189.82 93.6185 190.246 93.6185 191.609V191.631C93.6185 192.163 92.6384 192.121 91.5091 192.27C89.9751 192.462 88.3344 192.824 88.3344 194.678C88.3344 196.276 89.5702 197.192 91.1256 197.192C92.5532 197.192 93.2989 196.425 93.5546 195.892H93.6185V197ZM93.6185 194.038C93.6185 195.061 92.8089 196.062 91.3174 196.062C90.316 196.062 89.5915 195.615 89.5915 194.741C89.5915 193.783 90.4651 193.484 91.4452 193.357C91.9779 193.293 93.4055 193.143 93.6185 192.888V194.038ZM98.4272 186.091H97.1701V197H98.4272V186.091ZM105.71 197H107.18L103.622 192.302L106.839 188.818H105.284L101.96 192.504H101.811V186.091H100.554V197H101.811V194.14L102.775 193.101L105.71 197ZM113.891 190.651C113.464 189.457 112.548 188.712 111.036 188.712C109.31 188.712 108.031 189.692 108.031 191.077C108.031 192.078 108.692 192.973 110.183 193.357L111.547 193.697C112.357 193.889 112.719 194.251 112.719 194.784C112.719 195.466 112.037 196.084 110.865 196.084C109.651 196.084 109.075 195.423 108.777 194.678L107.626 195.104C108.031 196.126 108.926 197.17 110.886 197.17C112.911 197.17 113.997 195.999 113.997 194.741C113.997 193.804 113.379 192.952 111.888 192.589L110.673 192.291C109.736 192.057 109.288 191.567 109.288 191.013C109.288 190.31 110.034 189.777 111.036 189.777C112.293 189.777 112.612 190.608 112.761 190.97L113.891 190.651ZM120.859 187.646C121.413 187.646 121.754 187.263 121.754 186.794C121.754 186.368 121.413 185.942 120.859 185.942C120.305 185.942 119.964 186.368 119.964 186.794C119.964 187.263 120.305 187.646 120.859 187.646ZM121.498 188.818H120.241V197H121.498V188.818ZM125.058 192.163C125.058 190.629 126.23 189.926 127.167 189.926C128.211 189.926 128.957 190.693 128.957 191.886V197H130.214V191.801C130.214 189.713 129.106 188.712 127.572 188.712C126.336 188.712 125.527 189.372 125.143 190.203H125.058V188.818H123.801V197H125.058V192.163ZM145.684 189.5C145.28 187.263 143.49 185.942 141.295 185.942C138.504 185.942 136.48 188.094 136.48 191.545C136.48 194.997 138.504 197.149 141.295 197.149C143.49 197.149 145.28 195.828 145.684 193.591H144.363C144.044 195.104 142.744 195.913 141.295 195.913C139.314 195.913 137.758 194.379 137.758 191.545C137.758 188.712 139.314 187.178 141.295 187.178C142.744 187.178 144.044 187.987 144.363 189.5H145.684ZM153.742 188.903H155.021C154.914 187.178 153.444 185.942 151.335 185.942C149.247 185.942 147.606 187.156 147.606 188.989C147.606 190.459 148.671 191.332 150.376 191.822L151.718 192.206C153.188 192.632 153.892 193.037 153.892 194.017C153.892 195.21 152.741 195.999 151.228 195.999C149.928 195.999 148.778 195.423 148.671 194.188H147.308C147.436 195.977 148.884 197.192 151.228 197.192C153.742 197.192 155.17 195.807 155.17 194.017C155.17 192.504 154.169 191.588 152.102 191.034L150.994 190.736C149.545 190.352 148.884 189.82 148.884 188.946C148.884 187.881 149.843 187.114 151.292 187.114C152.613 187.114 153.551 187.732 153.742 188.903ZM157.642 186.091H156.257L160.262 197H161.626L165.632 186.091H164.247L161.008 195.274H160.88L157.642 186.091ZM171.933 197H173.19V189.99H175.023V188.818H173.19V188.349C173.19 187.54 173.531 187.114 174.362 187.114C174.724 187.114 174.937 187.199 175.065 187.241L175.427 186.155C175.236 186.07 174.852 185.942 174.234 185.942C173.062 185.942 171.933 186.645 171.933 188.051V188.818H170.612V189.99H171.933V197ZM179.742 197.17C181.958 197.17 183.449 195.487 183.449 192.952C183.449 190.395 181.958 188.712 179.742 188.712C177.526 188.712 176.035 190.395 176.035 192.952C176.035 195.487 177.526 197.17 179.742 197.17ZM179.742 196.041C178.059 196.041 177.292 194.592 177.292 192.952C177.292 191.311 178.059 189.841 179.742 189.841C181.425 189.841 182.192 191.311 182.192 192.952C182.192 194.592 181.425 196.041 179.742 196.041ZM189.885 188.989C189.63 188.839 189.225 188.69 188.799 188.69C187.84 188.69 186.945 189.436 186.711 190.224H186.625V188.818H185.368V197H186.625V192.376C186.647 191.268 187.414 189.99 188.756 189.99C189.118 189.99 189.331 190.097 189.459 190.161L189.885 188.989ZM197.218 191.865C197.218 190.714 197.857 189.926 198.965 189.926C199.647 189.926 200.563 190.331 200.563 191.609V197H201.82V191.652C201.82 189.649 200.712 188.712 199.348 188.712C198.155 188.712 197.218 189.5 196.983 190.182H196.898C196.536 189.372 195.811 188.712 194.789 188.712C193.745 188.712 192.892 189.5 192.658 190.203H192.573V188.818H191.316V197H192.573V192.121C192.573 190.778 193.489 189.926 194.448 189.926C195.364 189.926 195.939 190.416 195.939 191.652V197H197.218V191.865ZM209.019 197H210.276V191.609C210.276 189.01 208.294 188.712 207.25 188.712C206.015 188.712 204.608 189.138 203.969 190.629L205.162 191.055C205.439 190.459 206.1 189.82 207.314 189.82C208.294 189.82 209.019 190.246 209.019 191.609V191.631C209.019 192.163 208.039 192.121 206.91 192.27C205.375 192.462 203.735 192.824 203.735 194.678C203.735 196.276 204.971 197.192 206.526 197.192C207.954 197.192 208.699 196.425 208.955 195.892H209.019V197ZM209.019 194.038C209.019 195.061 208.209 196.062 206.718 196.062C205.716 196.062 204.992 195.615 204.992 194.741C204.992 193.783 205.866 193.484 206.846 193.357C207.378 193.293 208.806 193.143 209.019 192.888V194.038ZM215.913 188.818H214.166V187.071H212.909V188.818H211.673V189.99H212.909V194.997C212.909 196.425 214.059 197.107 215.125 197.107C215.593 197.107 215.892 197.021 216.062 196.957L215.806 195.828C215.7 195.849 215.529 195.892 215.252 195.892C214.699 195.892 214.166 195.722 214.166 194.656V189.99H215.913V188.818ZM218.731 197.085C219.263 197.085 219.69 196.659 219.69 196.126C219.69 195.615 219.263 195.189 218.731 195.189C218.219 195.189 217.772 195.594 217.772 196.126C217.772 196.659 218.198 197.085 218.731 197.085Z" fill="black"/>
<path d="M324.996 160C328.298 160 329.953 158.381 329.953 156.08C329.953 154.07 328.689 152.741 327.084 152.557V152.436C328.632 152.074 329.577 151.094 329.577 149.396C329.577 147.131 327.964 145.455 324.598 145.455H319.257V160H324.996ZM322.062 147.812H324.534C326.26 147.812 326.821 148.693 326.821 149.702C326.821 150.952 325.976 151.612 324.385 151.612H322.062V147.812ZM327.212 155.767C327.212 156.896 326.523 157.642 324.825 157.642H322.062V153.651H324.932C326.466 153.651 327.212 154.624 327.212 155.767ZM338.543 155.142C338.543 156.839 337.776 157.869 336.54 157.869C335.496 157.869 334.715 157.166 334.715 155.866V149.091H331.96V155.945C331.96 159.006 333.813 160.142 335.582 160.142C336.96 160.142 338.011 159.524 338.607 158.714H338.721V160H341.306V149.091H338.543V155.142ZM345.141 148.182C346.036 148.182 346.697 147.521 346.697 146.719C346.697 145.938 346.036 145.256 345.141 145.256C344.246 145.256 343.558 145.938 343.558 146.719C343.558 147.521 344.246 148.182 345.141 148.182ZM346.512 149.091H343.756V160H346.512V149.091ZM351.727 145.455H348.971V160H351.727V145.455ZM363.611 160V145.455H360.855V150.44H360.741C360.372 149.695 359.52 148.949 358.064 148.949C355.692 148.949 353.71 150.866 353.71 154.553C353.71 158.196 355.614 160.192 358.057 160.192C359.499 160.192 360.372 159.46 360.741 158.707H360.891V160H363.611ZM356.338 154.545C356.338 152.514 357.155 151.186 358.781 151.186C360.464 151.186 361.118 152.621 361.118 154.545C361.118 156.456 360.472 157.947 358.781 157.947C357.162 157.947 356.338 156.584 356.338 154.545ZM367.446 148.182C368.341 148.182 369.001 147.521 369.001 146.719C369.001 145.938 368.341 145.256 367.446 145.256C366.551 145.256 365.862 145.938 365.862 146.719C365.862 147.521 366.551 148.182 367.446 148.182ZM368.817 149.091H366.061V160H368.817V149.091ZM374.032 153.999C374.032 152.301 374.806 151.222 376.034 151.222C377.078 151.222 377.86 151.96 377.86 153.26V160H380.623V153.146C380.623 150.114 378.911 148.949 377 148.949C375.623 148.949 374.564 149.581 373.975 150.476H373.861V149.091H371.276V160H374.032V153.999ZM389.68 149.126V150.44H389.531C389.161 149.695 388.309 148.949 386.853 148.949C384.481 148.949 382.499 150.866 382.499 154.467C382.499 158.089 384.509 159.794 386.846 159.794C388.415 159.794 389.232 159.006 389.545 158.43H389.701V159.531C389.715 161.193 388.671 161.868 387.208 161.868C385.83 161.868 384.971 161.236 384.367 160.717L383.018 162.521C383.636 163.303 385.205 164.148 387.279 164.148C390.234 164.148 392.4 162.649 392.4 159.702V149.126H389.68ZM385.127 154.46C385.127 152.536 385.944 151.186 387.57 151.186C389.211 151.186 389.907 152.621 389.907 154.46C389.907 156.357 389.183 157.592 387.57 157.592C386.029 157.592 385.127 156.484 385.127 154.46ZM405.585 149.091H403.682V146.761H400.926V149.091H399.57V151.136H400.926V157.081C400.926 158.999 402.361 160.142 404.016 160.142C405.024 160.142 405.713 159.95 405.919 159.865L405.486 157.741C405.301 157.791 405.038 157.827 404.783 157.827C404.179 157.827 403.682 157.678 403.682 156.662V151.136H405.585V149.091ZM410.379 153.949C410.379 152.273 411.146 151.222 412.403 151.222C413.483 151.222 413.994 151.96 413.994 153.125V160H416.757V153.146C416.757 150.312 415.358 148.949 413.369 148.949C412.027 148.949 411.018 149.553 410.415 150.376H410.301V145.455H407.624V160H410.379V153.949ZM423.916 160.206C426.75 160.206 428.17 158.601 428.568 157.102L426.097 156.435C425.805 157.244 425.209 157.947 423.895 157.947C422.325 157.947 421.473 156.967 421.295 155.348H428.682V154.19C428.682 150.689 426.572 148.949 423.803 148.949C420.536 148.949 418.632 151.357 418.632 154.688C418.632 158.097 420.642 160.206 423.916 160.206ZM423.781 151.186C425.23 151.186 426.068 152.166 426.068 153.452H421.374C421.665 152.017 422.517 151.186 423.781 151.186ZM438.55 160L439.609 156.903H445.177L446.235 160H449.239L443.877 145.455H440.901L435.539 160H438.55ZM442.308 148.991H442.478L444.396 154.602H440.39L442.308 148.991ZM456.327 154.915C459.879 154.915 461.42 153.018 461.42 150.192C461.42 147.408 459.942 145.455 456.32 145.455H450.937V160H453.742V154.915H456.327ZM453.742 147.812H456.32C458.039 147.812 458.643 148.849 458.643 150.192C458.643 151.534 458.039 152.585 456.327 152.585H453.742V147.812ZM466.477 145.455H463.671V160H466.477V145.455ZM319.662 168.091H318.32L321.303 179H322.666L325.074 170.307H325.159L327.567 179H328.93L331.913 168.091H330.571L328.291 176.976H328.185L325.862 168.091H324.371L322.048 176.976H321.942L319.662 168.091ZM336.087 179.17C337.749 179.17 338.963 178.339 339.347 177.104L338.132 176.763C337.813 177.615 337.088 178.041 336.087 178.041C334.606 178.041 333.674 177.104 333.546 175.335H339.475V174.803C339.475 171.756 337.664 170.712 335.959 170.712C333.743 170.712 332.273 172.459 332.273 174.973C332.273 177.487 333.722 179.17 336.087 179.17ZM335.959 171.841C337.323 171.841 338.196 172.864 338.196 174.249H333.573C333.775 172.714 334.702 171.841 335.959 171.841ZM345.635 168.091V179H346.849V177.743H346.999C347.276 178.19 347.808 179.17 349.385 179.17C351.43 179.17 352.858 177.53 352.858 174.93C352.858 172.352 351.43 170.712 349.364 170.712C347.766 170.712 347.276 171.692 346.999 172.118H346.892V168.091H345.635ZM351.601 174.909C351.601 176.656 350.791 178.041 349.214 178.041C347.702 178.041 346.871 176.763 346.871 174.909C346.871 173.077 347.68 171.841 349.214 171.841C350.812 171.841 351.601 173.183 351.601 174.909ZM359.844 175.761C359.844 177.295 358.672 177.892 357.735 177.892C356.691 177.892 355.945 177.21 355.945 176.017V170.818H354.688V176.017C354.688 178.169 356.137 179.107 357.33 179.107C358.566 179.107 359.354 178.467 359.759 177.849H359.844V179H361.101V170.818H359.844V175.761ZM364.021 169.646C364.575 169.646 364.916 169.263 364.916 168.794C364.916 168.368 364.575 167.942 364.021 167.942C363.467 167.942 363.127 168.368 363.127 168.794C363.127 169.263 363.467 169.646 364.021 169.646ZM364.661 170.818H363.403V179H364.661V170.818ZM368.22 168.091H366.963V179H368.22V168.091ZM377.362 179V168.091H376.105V172.118H376.02C375.743 171.692 375.231 170.712 373.633 170.712C371.567 170.712 370.139 172.352 370.139 174.93C370.139 177.53 371.567 179.17 373.612 179.17C375.189 179.17 375.743 178.19 376.02 177.743H376.148V179H377.362ZM371.396 174.909C371.396 173.183 372.185 171.841 373.783 171.841C375.317 171.841 376.126 173.077 376.126 174.909C376.126 176.763 375.295 178.041 373.783 178.041C372.206 178.041 371.396 176.656 371.396 174.909ZM387.312 170.818H385.565V169.071H384.308V170.818H383.072V171.99H384.308V176.997C384.308 178.425 385.459 179.107 386.524 179.107C386.993 179.107 387.291 179.021 387.462 178.957L387.206 177.828C387.099 177.849 386.929 177.892 386.652 177.892C386.098 177.892 385.565 177.722 385.565 176.656V171.99H387.312V170.818ZM390.471 174.057C390.471 172.523 391.579 171.926 392.581 171.926C393.667 171.926 394.37 172.608 394.37 173.801V179H395.627V173.801C395.627 171.777 394.519 170.712 392.985 170.712C391.75 170.712 390.961 171.351 390.556 171.969H390.471V168.091H389.214V179H390.471V174.057ZM401.316 179.17C402.978 179.17 404.193 178.339 404.576 177.104L403.362 176.763C403.042 177.615 402.318 178.041 401.316 178.041C399.835 178.041 398.903 177.104 398.775 175.335H404.704V174.803C404.704 171.756 402.893 170.712 401.188 170.712C398.973 170.712 397.502 172.459 397.502 174.973C397.502 177.487 398.951 179.17 401.316 179.17ZM401.188 171.841C402.552 171.841 403.426 172.864 403.426 174.249H398.802C399.005 172.714 399.931 171.841 401.188 171.841ZM411.482 179L412.51 176.081H417.059L418.087 179H419.472L415.467 168.091H414.103L410.097 179H411.482ZM414.721 169.817H414.849L416.644 174.909H412.926L414.721 169.817ZM424.836 175.058C427.372 175.058 428.48 173.503 428.48 171.543C428.48 169.582 427.372 168.091 424.815 168.091H421.172V179H422.493V175.058H424.836ZM422.493 169.263H424.815C426.584 169.263 427.18 170.2 427.18 171.543C427.18 172.885 426.584 173.886 424.836 173.886H422.493V169.263ZM431.999 168.091H430.678V179H431.999V168.091ZM438.696 168.091V179H439.911V177.743H440.06C440.337 178.19 440.87 179.17 442.446 179.17C444.492 179.17 445.919 177.53 445.919 174.93C445.919 172.352 444.492 170.712 442.425 170.712C440.827 170.712 440.337 171.692 440.06 172.118H439.954V168.091H438.696ZM444.662 174.909C444.662 176.656 443.853 178.041 442.276 178.041C440.763 178.041 439.932 176.763 439.932 174.909C439.932 173.077 440.742 171.841 442.276 171.841C443.874 171.841 444.662 173.183 444.662 174.909ZM452.738 179H453.995V173.609C453.995 171.01 452.013 170.712 450.969 170.712C449.733 170.712 448.327 171.138 447.688 172.629L448.881 173.055C449.158 172.459 449.819 171.82 451.033 171.82C452.013 171.82 452.738 172.246 452.738 173.609V173.631C452.738 174.163 451.758 174.121 450.628 174.27C449.094 174.462 447.454 174.824 447.454 176.678C447.454 178.276 448.689 179.192 450.245 179.192C451.672 179.192 452.418 178.425 452.674 177.892H452.738V179ZM452.738 176.038C452.738 177.061 451.928 178.062 450.437 178.062C449.435 178.062 448.711 177.615 448.711 176.741C448.711 175.783 449.584 175.484 450.564 175.357C451.097 175.293 452.525 175.143 452.738 174.888V176.038ZM461.936 172.651C461.509 171.457 460.593 170.712 459.08 170.712C457.355 170.712 456.076 171.692 456.076 173.077C456.076 174.078 456.737 174.973 458.228 175.357L459.592 175.697C460.401 175.889 460.764 176.251 460.764 176.784C460.764 177.466 460.082 178.084 458.91 178.084C457.695 178.084 457.12 177.423 456.822 176.678L455.671 177.104C456.076 178.126 456.971 179.17 458.931 179.17C460.955 179.17 462.042 177.999 462.042 176.741C462.042 175.804 461.424 174.952 459.933 174.589L458.718 174.291C457.781 174.057 457.333 173.567 457.333 173.013C457.333 172.31 458.079 171.777 459.08 171.777C460.338 171.777 460.657 172.608 460.806 172.97L461.936 172.651ZM467.498 179.17C469.16 179.17 470.374 178.339 470.758 177.104L469.543 176.763C469.224 177.615 468.499 178.041 467.498 178.041C466.017 178.041 465.085 177.104 464.957 175.335H470.886V174.803C470.886 171.756 469.075 170.712 467.37 170.712C465.154 170.712 463.684 172.459 463.684 174.973C463.684 177.487 465.133 179.17 467.498 179.17ZM467.37 171.841C468.734 171.841 469.607 172.864 469.607 174.249H464.984C465.186 172.714 466.113 171.841 467.37 171.841ZM479.667 179V168.091H478.41V172.118H478.324C478.047 171.692 477.536 170.712 475.938 170.712C473.871 170.712 472.444 172.352 472.444 174.93C472.444 177.53 473.871 179.17 475.917 179.17C477.494 179.17 478.047 178.19 478.324 177.743H478.452V179H479.667ZM473.701 174.909C473.701 173.183 474.489 171.841 476.087 171.841C477.621 171.841 478.431 173.077 478.431 174.909C478.431 176.763 477.6 178.041 476.087 178.041C474.511 178.041 473.701 176.656 473.701 174.909ZM322.474 197.17C324.69 197.17 326.182 195.487 326.182 192.952C326.182 190.395 324.69 188.712 322.474 188.712C320.259 188.712 318.767 190.395 318.767 192.952C318.767 195.487 320.259 197.17 322.474 197.17ZM322.474 196.041C320.791 196.041 320.024 194.592 320.024 192.952C320.024 191.311 320.791 189.841 322.474 189.841C324.158 189.841 324.925 191.311 324.925 192.952C324.925 194.592 324.158 196.041 322.474 196.041ZM329.358 192.163C329.358 190.629 330.53 189.926 331.467 189.926C332.511 189.926 333.257 190.693 333.257 191.886V197H334.514V191.801C334.514 189.713 333.406 188.712 331.872 188.712C330.636 188.712 329.827 189.372 329.443 190.203H329.358V188.818H328.101V197H329.358V192.163ZM343.145 197.81C342.676 199.024 342.101 199.131 341.206 198.918L340.886 200.026C341.014 200.089 341.376 200.175 341.802 200.175C342.932 200.175 343.741 199.578 344.21 198.321L347.726 188.818H346.362L344.104 195.338H344.013L341.76 188.818H340.396L343.432 197.053L343.145 197.81ZM352.43 197.17C354.646 197.17 356.138 195.487 356.138 192.952C356.138 190.395 354.646 188.712 352.43 188.712C350.215 188.712 348.723 190.395 348.723 192.952C348.723 195.487 350.215 197.17 352.43 197.17ZM352.43 196.041C350.747 196.041 349.98 194.592 349.98 192.952C349.98 191.311 350.747 189.841 352.43 189.841C354.114 189.841 354.881 191.311 354.881 192.952C354.881 194.592 354.114 196.041 352.43 196.041ZM363.125 193.761C363.125 195.295 361.953 195.892 361.016 195.892C359.972 195.892 359.226 195.21 359.226 194.017V188.818H357.969V194.017C357.969 196.169 359.418 197.107 360.611 197.107C361.847 197.107 362.635 196.467 363.04 195.849H363.125V197H364.382V188.818H363.125V193.761ZM371.202 188.989C370.946 188.839 370.541 188.69 370.115 188.69C369.156 188.69 368.261 189.436 368.027 190.224H367.942V188.818H366.685V197H367.942V192.376C367.963 191.268 368.73 189.99 370.073 189.99C370.435 189.99 370.648 190.097 370.776 190.161L371.202 188.989ZM383.544 197V186.091H382.287V190.118H382.201C381.924 189.692 381.413 188.712 379.815 188.712C377.748 188.712 376.321 190.352 376.321 192.93C376.321 195.53 377.748 197.17 379.794 197.17C381.37 197.17 381.924 196.19 382.201 195.743H382.329V197H383.544ZM377.578 192.909C377.578 191.183 378.366 189.841 379.964 189.841C381.498 189.841 382.308 191.077 382.308 192.909C382.308 194.763 381.477 196.041 379.964 196.041C378.388 196.041 377.578 194.656 377.578 192.909ZM390.745 197H392.003V191.609C392.003 189.01 390.021 188.712 388.977 188.712C387.741 188.712 386.335 189.138 385.696 190.629L386.889 191.055C387.166 190.459 387.826 189.82 389.041 189.82C390.021 189.82 390.745 190.246 390.745 191.609V191.631C390.745 192.163 389.765 192.121 388.636 192.27C387.102 192.462 385.461 192.824 385.461 194.678C385.461 196.276 386.697 197.192 388.253 197.192C389.68 197.192 390.426 196.425 390.682 195.892H390.745V197ZM390.745 194.038C390.745 195.061 389.936 196.062 388.444 196.062C387.443 196.062 386.718 195.615 386.718 194.741C386.718 193.783 387.592 193.484 388.572 193.357C389.105 193.293 390.532 193.143 390.745 192.888V194.038ZM397.64 188.818H395.892V187.071H394.635V188.818H393.4V189.99H394.635V194.997C394.635 196.425 395.786 197.107 396.851 197.107C397.32 197.107 397.618 197.021 397.789 196.957L397.533 195.828C397.426 195.849 397.256 195.892 396.979 195.892C396.425 195.892 395.892 195.722 395.892 194.656V189.99H397.64V188.818ZM404.442 197H405.699V191.609C405.699 189.01 403.717 188.712 402.673 188.712C401.438 188.712 400.031 189.138 399.392 190.629L400.585 191.055C400.862 190.459 401.523 189.82 402.737 189.82C403.717 189.82 404.442 190.246 404.442 191.609V191.631C404.442 192.163 403.462 192.121 402.332 192.27C400.798 192.462 399.158 192.824 399.158 194.678C399.158 196.276 400.393 197.192 401.949 197.192C403.376 197.192 404.122 196.425 404.378 195.892H404.442V197ZM404.442 194.038C404.442 195.061 403.632 196.062 402.141 196.062C401.139 196.062 400.415 195.615 400.415 194.741C400.415 193.783 401.288 193.484 402.268 193.357C402.801 193.293 404.229 193.143 404.442 192.888V194.038ZM415.642 197.17C417.304 197.17 418.519 196.339 418.902 195.104L417.688 194.763C417.368 195.615 416.644 196.041 415.642 196.041C414.162 196.041 413.229 195.104 413.102 193.335H419.03V192.803C419.03 189.756 417.219 188.712 415.515 188.712C413.299 188.712 411.829 190.459 411.829 192.973C411.829 195.487 413.277 197.17 415.642 197.17ZM415.515 189.841C416.878 189.841 417.752 190.864 417.752 192.249H413.128C413.331 190.714 414.258 189.841 415.515 189.841ZM422.229 192.163C422.229 190.629 423.401 189.926 424.338 189.926C425.382 189.926 426.128 190.693 426.128 191.886V197H427.385V191.801C427.385 189.713 426.277 188.712 424.743 188.712C423.507 188.712 422.698 189.372 422.314 190.203H422.229V188.818H420.972V197H422.229V192.163ZM435.334 190.651C434.908 189.457 433.992 188.712 432.479 188.712C430.753 188.712 429.475 189.692 429.475 191.077C429.475 192.078 430.135 192.973 431.627 193.357L432.99 193.697C433.8 193.889 434.162 194.251 434.162 194.784C434.162 195.466 433.48 196.084 432.308 196.084C431.094 196.084 430.519 195.423 430.22 194.678L429.07 195.104C429.475 196.126 430.369 197.17 432.33 197.17C434.354 197.17 435.441 195.999 435.441 194.741C435.441 193.804 434.823 192.952 433.331 192.589L432.117 192.291C431.179 192.057 430.732 191.567 430.732 191.013C430.732 190.31 431.477 189.777 432.479 189.777C433.736 189.777 434.056 190.608 434.205 190.97L435.334 190.651ZM442.622 193.761C442.622 195.295 441.45 195.892 440.513 195.892C439.469 195.892 438.723 195.21 438.723 194.017V188.818H437.466V194.017C437.466 196.169 438.915 197.107 440.108 197.107C441.344 197.107 442.132 196.467 442.537 195.849H442.622V197H443.879V188.818H442.622V193.761ZM450.699 188.989C450.443 188.839 450.038 188.69 449.612 188.69C448.653 188.69 447.759 189.436 447.524 190.224H447.439V188.818H446.182V197H447.439V192.376C447.46 191.268 448.227 189.99 449.57 189.99C449.932 189.99 450.145 190.097 450.273 190.161L450.699 188.989ZM452.747 187.646C453.301 187.646 453.642 187.263 453.642 186.794C453.642 186.368 453.301 185.942 452.747 185.942C452.193 185.942 451.852 186.368 451.852 186.794C451.852 187.263 452.193 187.646 452.747 187.646ZM453.386 188.818H452.129V197H453.386V188.818ZM456.946 192.163C456.946 190.629 458.118 189.926 459.055 189.926C460.099 189.926 460.845 190.693 460.845 191.886V197H462.102V191.801C462.102 189.713 460.994 188.712 459.46 188.712C458.224 188.712 457.415 189.372 457.031 190.203H456.946V188.818H455.689V197H456.946V192.163ZM469.986 188.818V190.118H469.858C469.581 189.692 469.069 188.712 467.471 188.712C465.405 188.712 463.977 190.352 463.977 192.866C463.977 195.423 465.468 196.872 467.45 196.872C469.048 196.872 469.559 195.935 469.836 195.487H469.943V196.936C469.964 198.3 468.878 198.939 467.62 198.939C466.214 198.939 465.639 198.129 465.319 197.724L464.318 198.428C464.829 199.301 465.873 200.068 467.62 200.068C469.517 200.068 471.2 199.173 471.2 197.064V188.818H469.986ZM465.234 192.845C465.234 191.183 466.022 189.841 467.62 189.841C469.155 189.841 469.964 191.077 469.964 192.845C469.964 194.656 469.133 195.743 467.62 195.743C466.044 195.743 465.234 194.55 465.234 192.845ZM478.338 187.646C478.892 187.646 479.233 187.263 479.233 186.794C479.233 186.368 478.892 185.942 478.338 185.942C477.784 185.942 477.443 186.368 477.443 186.794C477.443 187.263 477.784 187.646 478.338 187.646ZM478.977 188.818H477.72V197H478.977V188.818ZM484.71 188.818H482.963V187.071H481.706V188.818H480.47V189.99H481.706V194.997C481.706 196.425 482.856 197.107 483.922 197.107C484.39 197.107 484.689 197.021 484.859 196.957L484.603 195.828C484.497 195.849 484.326 195.892 484.049 195.892C483.495 195.892 482.963 195.722 482.963 194.656V189.99H484.71V188.818ZM492.111 190.651C491.685 189.457 490.769 188.712 489.256 188.712C487.53 188.712 486.252 189.692 486.252 191.077C486.252 192.078 486.912 192.973 488.404 193.357L489.768 193.697C490.577 193.889 490.939 194.251 490.939 194.784C490.939 195.466 490.258 196.084 489.086 196.084C487.871 196.084 487.296 195.423 486.998 194.678L485.847 195.104C486.252 196.126 487.147 197.17 489.107 197.17C491.131 197.17 492.218 195.999 492.218 194.741C492.218 193.804 491.6 192.952 490.108 192.589L488.894 192.291C487.956 192.057 487.509 191.567 487.509 191.013C487.509 190.31 488.255 189.777 489.256 189.777C490.513 189.777 490.833 190.608 490.982 190.97L492.111 190.651ZM324.797 208.651C324.371 207.457 323.455 206.712 321.942 206.712C320.216 206.712 318.938 207.692 318.938 209.077C318.938 210.078 319.598 210.973 321.089 211.357L322.453 211.697C323.263 211.889 323.625 212.251 323.625 212.784C323.625 213.466 322.943 214.084 321.771 214.084C320.557 214.084 319.982 213.423 319.683 212.678L318.533 213.104C318.938 214.126 319.832 215.17 321.793 215.17C323.817 215.17 324.903 213.999 324.903 212.741C324.903 211.804 324.286 210.952 322.794 210.589L321.58 210.291C320.642 210.057 320.195 209.567 320.195 209.013C320.195 208.31 320.94 207.777 321.942 207.777C323.199 207.777 323.518 208.608 323.668 208.97L324.797 208.651ZM330.359 215.17C332.021 215.17 333.236 214.339 333.619 213.104L332.405 212.763C332.085 213.615 331.361 214.041 330.359 214.041C328.878 214.041 327.946 213.104 327.818 211.335H333.747V210.803C333.747 207.756 331.936 206.712 330.231 206.712C328.016 206.712 326.545 208.459 326.545 210.973C326.545 213.487 327.994 215.17 330.359 215.17ZM330.231 207.841C331.595 207.841 332.469 208.864 332.469 210.249H327.845C328.047 208.714 328.974 207.841 330.231 207.841ZM342.23 209.268C342.017 207.734 340.717 206.712 338.991 206.712C336.775 206.712 335.305 208.459 335.305 210.909C335.305 213.423 336.733 215.17 339.013 215.17C340.824 215.17 342.017 214.062 342.23 212.614H340.973C340.738 213.509 339.993 214.041 339.013 214.041C337.521 214.041 336.562 212.805 336.562 210.909C336.562 209.055 337.542 207.841 339.013 207.841C340.12 207.841 340.781 208.523 340.973 209.268H342.23ZM349.224 211.761C349.224 213.295 348.052 213.892 347.114 213.892C346.07 213.892 345.325 213.21 345.325 212.017V206.818H344.068V212.017C344.068 214.169 345.516 215.107 346.71 215.107C347.945 215.107 348.734 214.467 349.139 213.849H349.224V215H350.481V206.818H349.224V211.761ZM357.3 206.989C357.045 206.839 356.64 206.69 356.214 206.69C355.255 206.69 354.36 207.436 354.126 208.224H354.04V206.818H352.783V215H354.04V210.376C354.062 209.268 354.829 207.99 356.171 207.99C356.533 207.99 356.746 208.097 356.874 208.161L357.3 206.989ZM359.349 205.646C359.903 205.646 360.243 205.263 360.243 204.794C360.243 204.368 359.903 203.942 359.349 203.942C358.795 203.942 358.454 204.368 358.454 204.794C358.454 205.263 358.795 205.646 359.349 205.646ZM359.988 206.818H358.731V215H359.988V206.818ZM365.721 206.818H363.973V205.071H362.716V206.818H361.481V207.99H362.716V212.997C362.716 214.425 363.867 215.107 364.932 215.107C365.401 215.107 365.699 215.021 365.87 214.957L365.614 213.828C365.508 213.849 365.337 213.892 365.06 213.892C364.506 213.892 363.973 213.722 363.973 212.656V207.99H365.721V206.818ZM369.732 215.81C369.263 217.024 368.688 217.131 367.793 216.918L367.473 218.026C367.601 218.089 367.963 218.175 368.389 218.175C369.519 218.175 370.328 217.578 370.797 216.321L374.313 206.818H372.949L370.69 213.338H370.6L368.347 206.818H366.983L370.019 215.053L369.732 215.81ZM376.642 213.636H375.278V214.659C375.278 215.469 375.001 216.214 374.639 217.067L375.704 217.28C376.258 216.449 376.62 215.575 376.642 214.638V213.636ZM388.869 208.651C388.443 207.457 387.527 206.712 386.014 206.712C384.288 206.712 383.01 207.692 383.01 209.077C383.01 210.078 383.67 210.973 385.162 211.357L386.525 211.697C387.335 211.889 387.697 212.251 387.697 212.784C387.697 213.466 387.015 214.084 385.844 214.084C384.629 214.084 384.054 213.423 383.756 212.678L382.605 213.104C383.01 214.126 383.905 215.17 385.865 215.17C387.889 215.17 388.976 213.999 388.976 212.741C388.976 211.804 388.358 210.952 386.866 210.589L385.652 210.291C384.714 210.057 384.267 209.567 384.267 209.013C384.267 208.31 385.013 207.777 386.014 207.777C387.271 207.777 387.591 208.608 387.74 208.97L388.869 208.651ZM397.542 209.268C397.329 207.734 396.03 206.712 394.304 206.712C392.088 206.712 390.618 208.459 390.618 210.909C390.618 213.423 392.045 215.17 394.325 215.17C396.136 215.17 397.329 214.062 397.542 212.614H396.285C396.051 213.509 395.305 214.041 394.325 214.041C392.834 214.041 391.875 212.805 391.875 210.909C391.875 209.055 392.855 207.841 394.325 207.841C395.433 207.841 396.093 208.523 396.285 209.268H397.542ZM404.281 215H405.538V209.609C405.538 207.01 403.556 206.712 402.512 206.712C401.276 206.712 399.87 207.138 399.231 208.629L400.424 209.055C400.701 208.459 401.362 207.82 402.576 207.82C403.556 207.82 404.281 208.246 404.281 209.609V209.631C404.281 210.163 403.301 210.121 402.171 210.27C400.637 210.462 398.997 210.824 398.997 212.678C398.997 214.276 400.232 215.192 401.788 215.192C403.215 215.192 403.961 214.425 404.217 213.892H404.281V215ZM404.281 212.038C404.281 213.061 403.471 214.062 401.979 214.062C400.978 214.062 400.254 213.615 400.254 212.741C400.254 211.783 401.127 211.484 402.107 211.357C402.64 211.293 404.068 211.143 404.281 210.888V212.038ZM409.089 204.091H407.832V215H409.089V204.091ZM416.292 215H417.549V209.609C417.549 207.01 415.568 206.712 414.524 206.712C413.288 206.712 411.882 207.138 411.243 208.629L412.436 209.055C412.713 208.459 413.373 207.82 414.588 207.82C415.568 207.82 416.292 208.246 416.292 209.609V209.631C416.292 210.163 415.312 210.121 414.183 210.27C412.649 210.462 411.008 210.824 411.008 212.678C411.008 214.276 412.244 215.192 413.799 215.192C415.227 215.192 415.973 214.425 416.228 213.892H416.292V215ZM416.292 212.038C416.292 213.061 415.483 214.062 413.991 214.062C412.99 214.062 412.265 213.615 412.265 212.741C412.265 211.783 413.139 211.484 414.119 211.357C414.652 211.293 416.079 211.143 416.292 210.888V212.038ZM419.844 204.091V215H421.058V213.743H421.208C421.485 214.19 422.017 215.17 423.594 215.17C425.639 215.17 427.067 213.53 427.067 210.93C427.067 208.352 425.639 206.712 423.573 206.712C421.975 206.712 421.485 207.692 421.208 208.118H421.101V204.091H419.844ZM425.81 210.909C425.81 212.656 425 214.041 423.423 214.041C421.911 214.041 421.08 212.763 421.08 210.909C421.08 209.077 421.889 207.841 423.423 207.841C425.021 207.841 425.81 209.183 425.81 210.909ZM429.602 205.646C430.156 205.646 430.497 205.263 430.497 204.794C430.497 204.368 430.156 203.942 429.602 203.942C429.048 203.942 428.708 204.368 428.708 204.794C428.708 205.263 429.048 205.646 429.602 205.646ZM430.242 206.818H428.985V215H430.242V206.818ZM433.801 204.091H432.544V215H433.801V204.091ZM436.722 205.646C437.276 205.646 437.616 205.263 437.616 204.794C437.616 204.368 437.276 203.942 436.722 203.942C436.168 203.942 435.827 204.368 435.827 204.794C435.827 205.263 436.168 205.646 436.722 205.646ZM437.361 206.818H436.104V215H437.361V206.818ZM443.094 206.818H441.347V205.071H440.089V206.818H438.854V207.99H440.089V212.997C440.089 214.425 441.24 215.107 442.305 215.107C442.774 215.107 443.072 215.021 443.243 214.957L442.987 213.828C442.881 213.849 442.71 213.892 442.433 213.892C441.879 213.892 441.347 213.722 441.347 212.656V207.99H443.094V206.818ZM447.105 215.81C446.636 217.024 446.061 217.131 445.166 216.918L444.846 218.026C444.974 218.089 445.336 218.175 445.762 218.175C446.892 218.175 447.701 217.578 448.17 216.321L451.686 206.818H450.322L448.063 213.338H447.973L445.72 206.818H444.356L447.392 215.053L447.105 215.81ZM462.464 215H463.721V209.609C463.721 207.01 461.74 206.712 460.696 206.712C459.46 206.712 458.054 207.138 457.415 208.629L458.608 209.055C458.885 208.459 459.545 207.82 460.76 207.82C461.74 207.82 462.464 208.246 462.464 209.609V209.631C462.464 210.163 461.484 210.121 460.355 210.27C458.821 210.462 457.18 210.824 457.18 212.678C457.18 214.276 458.416 215.192 459.971 215.192C461.399 215.192 462.145 214.425 462.4 213.892H462.464V215ZM462.464 212.038C462.464 213.061 461.655 214.062 460.163 214.062C459.162 214.062 458.437 213.615 458.437 212.741C458.437 211.783 459.311 211.484 460.291 211.357C460.824 211.293 462.251 211.143 462.464 210.888V212.038ZM467.273 210.163C467.273 208.629 468.445 207.926 469.382 207.926C470.426 207.926 471.172 208.693 471.172 209.886V215H472.429V209.801C472.429 207.713 471.321 206.712 469.787 206.712C468.551 206.712 467.742 207.372 467.358 208.203H467.273V206.818H466.016V215H467.273V210.163ZM481.527 215V204.091H480.27V208.118H480.185C479.908 207.692 479.396 206.712 477.798 206.712C475.732 206.712 474.304 208.352 474.304 210.93C474.304 213.53 475.732 215.17 477.777 215.17C479.354 215.17 479.908 214.19 480.185 213.743H480.313V215H481.527ZM475.561 210.909C475.561 209.183 476.35 207.841 477.948 207.841C479.482 207.841 480.291 209.077 480.291 210.909C480.291 212.763 479.46 214.041 477.948 214.041C476.371 214.041 475.561 212.656 475.561 210.909ZM324.051 233H325.308V227.609C325.308 225.01 323.327 224.712 322.283 224.712C321.047 224.712 319.641 225.138 319.001 226.629L320.195 227.055C320.472 226.459 321.132 225.82 322.347 225.82C323.327 225.82 324.051 226.246 324.051 227.609V227.631C324.051 228.163 323.071 228.121 321.942 228.27C320.408 228.462 318.767 228.824 318.767 230.678C318.767 232.276 320.003 233.192 321.558 233.192C322.986 233.192 323.732 232.425 323.987 231.892H324.051V233ZM324.051 230.038C324.051 231.061 323.241 232.062 321.75 232.062C320.749 232.062 320.024 231.615 320.024 230.741C320.024 229.783 320.898 229.484 321.878 229.357C322.411 229.293 323.838 229.143 324.051 228.888V230.038ZM328.86 228.163C328.86 226.629 330.032 225.926 330.969 225.926C332.013 225.926 332.759 226.693 332.759 227.886V233H334.016V227.801C334.016 225.713 332.908 224.712 331.374 224.712C330.138 224.712 329.329 225.372 328.945 226.203H328.86V224.818H327.603V233H328.86V228.163ZM341.219 233H342.476V227.609C342.476 225.01 340.495 224.712 339.451 224.712C338.215 224.712 336.809 225.138 336.169 226.629L337.363 227.055C337.64 226.459 338.3 225.82 339.515 225.82C340.495 225.82 341.219 226.246 341.219 227.609V227.631C341.219 228.163 340.239 228.121 339.11 228.27C337.576 228.462 335.935 228.824 335.935 230.678C335.935 232.276 337.171 233.192 338.726 233.192C340.154 233.192 340.9 232.425 341.155 231.892H341.219V233ZM341.219 230.038C341.219 231.061 340.409 232.062 338.918 232.062C337.917 232.062 337.192 231.615 337.192 230.741C337.192 229.783 338.066 229.484 339.046 229.357C339.578 229.293 341.006 229.143 341.219 228.888V230.038ZM346.028 222.091H344.771V233H346.028V222.091ZM350.44 233.81C349.971 235.024 349.396 235.131 348.501 234.918L348.181 236.026C348.309 236.089 348.671 236.175 349.097 236.175C350.227 236.175 351.036 235.578 351.505 234.321L355.021 224.818H353.657L351.398 231.338H351.308L349.055 224.818H347.691L350.727 233.053L350.44 233.81ZM360.11 224.818H358.363V223.071H357.106V224.818H355.87V225.99H357.106V230.997C357.106 232.425 358.257 233.107 359.322 233.107C359.791 233.107 360.089 233.021 360.259 232.957L360.004 231.828C359.897 231.849 359.727 231.892 359.45 231.892C358.896 231.892 358.363 231.722 358.363 230.656V225.99H360.11V224.818ZM362.63 223.646C363.184 223.646 363.525 223.263 363.525 222.794C363.525 222.368 363.184 221.942 362.63 221.942C362.076 221.942 361.735 222.368 361.735 222.794C361.735 223.263 362.076 223.646 362.63 223.646ZM363.269 224.818H362.012V233H363.269V224.818ZM372.113 227.268C371.9 225.734 370.6 224.712 368.874 224.712C366.658 224.712 365.188 226.459 365.188 228.909C365.188 231.423 366.616 233.17 368.895 233.17C370.706 233.17 371.9 232.062 372.113 230.614H370.856C370.621 231.509 369.875 232.041 368.895 232.041C367.404 232.041 366.445 230.805 366.445 228.909C366.445 227.055 367.425 225.841 368.895 225.841C370.003 225.841 370.664 226.523 370.856 227.268H372.113ZM379.597 226.651C379.171 225.457 378.254 224.712 376.742 224.712C375.016 224.712 373.737 225.692 373.737 227.077C373.737 228.078 374.398 228.973 375.889 229.357L377.253 229.697C378.063 229.889 378.425 230.251 378.425 230.784C378.425 231.466 377.743 232.084 376.571 232.084C375.357 232.084 374.781 231.423 374.483 230.678L373.332 231.104C373.737 232.126 374.632 233.17 376.592 233.17C378.617 233.17 379.703 231.999 379.703 230.741C379.703 229.804 379.085 228.952 377.594 228.589L376.379 228.291C375.442 228.057 374.994 227.567 374.994 227.013C374.994 226.31 375.74 225.777 376.742 225.777C377.999 225.777 378.318 226.608 378.467 226.97L379.597 226.651Z" fill="black"/>
<rect x="318" y="94" width="29" height="26.1" fill="#E20E0F"/>
<path d="M322.925 108.671C322.623 108.671 322.221 108.581 322.221 108.172C322.221 107.754 322.639 107.623 322.942 107.623C323.474 107.623 323.826 107.819 323.826 107.819V108.221C323.826 108.221 323.515 108.671 322.925 108.671ZM323.04 105.412C322.229 105.412 321.509 105.764 321.509 105.764L321.828 106.575C321.828 106.575 322.426 106.288 322.991 106.288C323.335 106.288 323.826 106.452 323.826 106.96V107.181C323.826 107.181 323.458 106.902 322.745 106.902C321.902 106.902 321.222 107.443 321.222 108.188C321.222 109.015 321.894 109.49 322.623 109.49C323.499 109.49 323.9 108.9 323.9 108.9V109.392H324.809V106.861C324.809 105.977 324.154 105.412 323.04 105.412Z" fill="white"/>
<path d="M325.383 105.51V111.275H326.366V108.99C326.497 109.154 326.849 109.49 327.463 109.49C328.47 109.49 329.354 108.646 329.354 107.451C329.354 106.256 328.47 105.412 327.463 105.412C326.66 105.412 326.292 106.018 326.292 106.018V105.51H325.383ZM326.366 106.87C326.366 106.87 326.644 106.329 327.291 106.329C327.954 106.329 328.355 106.812 328.355 107.451C328.355 108.09 327.954 108.573 327.291 108.573C326.644 108.573 326.366 108.032 326.366 108.032V106.87Z" fill="white"/>
<path d="M329.823 109.392H330.805V105.51H329.823V109.392ZM329.667 104.258C329.667 104.618 329.954 104.905 330.314 104.905C330.674 104.905 330.961 104.618 330.961 104.258C330.961 103.897 330.674 103.611 330.314 103.611C329.954 103.611 329.667 103.897 329.667 104.258Z" fill="white"/>
<path d="M321.222 113.46H321.984V115.18C321.984 116.007 322.557 116.556 323.31 116.556C323.875 116.556 324.244 116.302 324.244 116.302L323.883 115.499C323.883 115.499 323.695 115.639 323.474 115.639C323.212 115.639 322.966 115.499 322.966 115.024V113.46H324.137V112.576H322.966V111.422H321.984V112.576H321.222V113.46Z" fill="white"/>
<path d="M326.053 115.737C325.75 115.737 325.349 115.647 325.349 115.237C325.349 114.82 325.767 114.689 326.07 114.689C326.602 114.689 326.954 114.885 326.954 114.885V115.286C326.954 115.286 326.643 115.737 326.053 115.737ZM326.168 112.478C325.357 112.478 324.637 112.83 324.637 112.83L324.956 113.641C324.956 113.641 325.554 113.354 326.119 113.354C326.463 113.354 326.954 113.518 326.954 114.025V114.247C326.954 114.247 326.586 113.968 325.873 113.968C325.03 113.968 324.35 114.509 324.35 115.254C324.35 116.081 325.022 116.556 325.75 116.556C326.627 116.556 327.028 115.966 327.028 115.966V116.457H327.937V113.927C327.937 113.043 327.282 112.478 326.168 112.478Z" fill="white"/>
<path d="M328.626 116.457H329.608V110.267H328.626V116.457Z" fill="white"/>
<path d="M331.39 110.267H330.407V116.457H331.39V114.762L332.872 116.457H334.165L332.348 114.41L334.051 112.576H332.782L331.39 114.107V110.267Z" fill="white"/>
<path d="M333.907 115.851C333.907 115.851 334.521 116.556 335.66 116.556C336.65 116.556 337.354 116.023 337.354 115.36C337.354 114.558 336.806 114.304 336.036 114.14C335.381 114.001 335.119 113.944 335.119 113.706C335.119 113.469 335.455 113.338 335.823 113.338C336.347 113.338 336.79 113.673 336.79 113.673L337.281 112.953C337.281 112.953 336.699 112.478 335.823 112.478C334.759 112.478 334.153 113.084 334.153 113.69C334.153 114.427 334.824 114.754 335.594 114.918C336.184 115.041 336.364 115.09 336.364 115.344C336.364 115.581 336.028 115.696 335.627 115.696C334.972 115.696 334.456 115.139 334.456 115.139L333.907 115.851Z" fill="white"/>
<path d="M612.317 109.179H621.104C621.432 111.338 623.286 112.998 625.524 112.998C627.992 112.998 630 110.98 630 108.5C630 106.02 627.992 104.002 625.523 104.002C623.286 104.002 621.431 105.662 621.104 107.821H612.292C612.214 107.251 612.054 106.696 611.811 106.174L620.189 101.31C621.031 102.364 622.317 102.997 623.684 102.997C624.466 102.997 625.239 102.789 625.92 102.394C628.055 101.154 628.789 98.3982 627.557 96.2514C626.76 94.8628 625.272 94 623.675 94C622.893 94 622.12 94.2087 621.44 94.6038C619.503 95.7283 618.724 98.0985 619.515 100.132L611.096 105.02C610.668 104.484 610.142 104.014 609.515 103.651C608.653 103.15 607.672 102.885 606.681 102.885C604.656 102.885 602.77 103.979 601.759 105.74C600.195 108.463 601.126 111.958 603.835 113.531C604.698 114.032 605.678 114.297 606.669 114.297C608.454 114.297 610.13 113.446 611.195 112.038L619.515 116.868C618.724 118.902 619.503 121.272 621.44 122.396C622.12 122.791 622.893 123 623.675 123C623.675 123 623.675 123 623.675 123C625.272 123 626.76 122.137 627.557 120.748C628.79 118.601 628.055 115.846 625.92 114.606C625.24 114.211 624.466 114.002 623.684 114.002C622.317 114.002 621.032 114.636 620.189 115.69L611.878 110.865C612.115 110.318 612.258 109.75 612.317 109.179ZM625.523 105.359C627.243 105.359 628.642 106.768 628.642 108.5C628.642 110.232 627.243 111.641 625.523 111.641C623.804 111.641 622.405 110.232 622.405 108.5C622.405 106.768 623.804 105.359 625.523 105.359ZM622.121 95.7779C622.595 95.5029 623.132 95.3577 623.675 95.3577C624.787 95.3577 625.824 95.9591 626.38 96.9275C627.241 98.4284 626.729 100.354 625.238 101.22C624.765 101.495 624.227 101.64 623.685 101.64C622.572 101.64 621.536 101.039 620.98 100.07C620.118 98.5689 620.63 96.6437 622.121 95.7779ZM610.414 110.766C609.645 112.106 608.21 112.939 606.669 112.939C605.917 112.939 605.173 112.738 604.517 112.357C602.453 111.159 601.744 108.494 602.937 106.416C603.706 105.076 605.141 104.243 606.681 104.243C607.434 104.243 608.178 104.444 608.834 104.825C610.898 106.023 611.607 108.688 610.414 110.766ZM623.684 115.36C624.227 115.36 624.765 115.505 625.238 115.78C626.729 116.646 627.241 118.571 626.379 120.073C625.823 121.041 624.787 121.642 623.675 121.642C623.132 121.642 622.594 121.497 622.121 121.222C620.63 120.356 620.118 118.431 620.98 116.93C621.536 115.962 622.572 115.36 623.684 115.36Z" fill="#E20E0F"/>
<circle cx="66" cy="49" r="24.5" stroke="black" stroke-dasharray="1 1"/>
<path d="M68.2959 38.1818H64.5992C64.5139 39.1406 62.7455 41.6548 59.7412 41.6548V44.8509C62.1915 44.8509 63.8215 43.9027 64.2476 43.2315H64.4287V60H68.2959V38.1818Z" fill="black"/>
<circle cx="343" cy="49" r="24.625" stroke="black" stroke-width="0.75" stroke-dasharray="1 1"/>
<path d="M336.205 60H351.162V56.6974H341.83V56.5483L345.612 52.7237C349.415 49.0376 350.758 47.0455 350.758 44.3821C350.736 40.728 347.86 37.8835 343.449 37.8835C339.113 37.8835 336.013 40.5682 336.013 44.7124H339.774C339.763 42.4751 341.223 41.0902 343.396 41.0902C345.463 41.0902 347.04 42.358 347.04 44.4141C347.04 46.2358 345.91 47.5462 343.78 49.7195L336.205 57.1449V60Z" fill="black"/>
<circle cx="626" cy="49" r="24.625" stroke="black" stroke-width="0.75" stroke-dasharray="1 1"/>
<path d="M625.999 60.2983C630.665 60.2983 634.063 57.6243 634.053 53.9382C634.063 51.2109 632.359 49.2507 629.301 48.8139V48.6435C631.666 48.1321 633.254 46.3743 633.243 43.924C633.254 40.6001 630.42 37.8835 626.063 37.8835C621.823 37.8835 618.541 40.4084 618.456 44.0625H622.259C622.323 42.2301 624.028 41.0902 626.041 41.0902C628.076 41.0902 629.429 42.326 629.418 44.1584C629.429 46.0653 627.852 47.3331 625.594 47.3331H623.666V50.38H625.594C628.353 50.38 629.994 51.7649 629.983 53.7358C629.994 55.6641 628.321 56.9851 625.988 56.9851C623.793 56.9851 622.1 55.8452 622.004 54.0661H617.998C618.104 57.7521 621.396 60.2983 625.999 60.2983Z" fill="black"/>
</g>
<defs>
<clipPath id="clip0">
<rect width="776" height="266" fill="white"/>
</clipPath>
</defs>
</svg>
